<svg version="1.2" xmlns="http://www.w3.org/2000/svg" viewBox="0 0 225 113" width="225" height="113">
	<title>fortniteface-svg</title>
	<defs>
		<filter x="-50%" y="-50%" width="200%" height="200%" id="f1" ><feDropShadow dx="0" dy="0" stdDeviation="2.0833333333333335" flood-color="#00baff" flood-opacity="1.5"/></filter>
		<linearGradient id="g1" x1="27.3" y1="53.6" x2="27.3" y2="1" gradientUnits="userSpaceOnUse">
			<stop offset="0" stop-color="#69fffd"/>
			<stop offset="1" stop-color="#69fffd"/>
		</linearGradient>
		<filter x="-50%" y="-50%" width="200%" height="200%" id="f2" ><feDropShadow dx="0" dy="0" stdDeviation="2.0833333333333335" flood-color="#00baff" flood-opacity="1.5"/></filter>
		<filter x="-50%" y="-50%" width="200%" height="200%" id="f3" ><feDropShadow dx="0" dy="0" stdDeviation="2.0833333333333335" flood-color="#00baff" flood-opacity="1.5"/></filter>
		<linearGradient id="g2" x1="83.7" y1="53.5" x2="83.7" y2=".9" gradientUnits="userSpaceOnUse">
			<stop offset="0" stop-color="#69fffd"/>
			<stop offset="1" stop-color="#69fffd"/>
		</linearGradient>
		<filter x="-50%" y="-50%" width="200%" height="200%" id="f4" ><feDropShadow dx="0" dy="0" stdDeviation="2.0833333333333335" flood-color="#00baff" flood-opacity="1.5"/></filter>
		<filter x="-50%" y="-50%" width="200%" height="200%" id="f5" ><feDropShadow dx="0" dy="0" stdDeviation="2.0833333333333335" flood-color="#00baff" flood-opacity="1.5"/></filter>
		<linearGradient id="g3" x1="140.3" y1="54.1" x2="140.3" y2="1.5" gradientUnits="userSpaceOnUse">
			<stop offset="0" stop-color="#69fffd"/>
			<stop offset="1" stop-color="#69fffd"/>
		</linearGradient>
		<filter x="-50%" y="-50%" width="200%" height="200%" id="f6" ><feDropShadow dx="0" dy="0" stdDeviation="2.0833333333333335" flood-color="#00baff" flood-opacity="1.5"/></filter>
		<filter x="-50%" y="-50%" width="200%" height="200%" id="f7" ><feDropShadow dx="0" dy="0" stdDeviation="2.0833333333333335" flood-color="#00baff" flood-opacity="1.5"/></filter>
		<linearGradient id="g4" x1="196.8" y1="54.8" x2="196.8" y2="2.2" gradientUnits="userSpaceOnUse">
			<stop offset="0" stop-color="#69fffd"/>
			<stop offset="1" stop-color="#69fffd"/>
		</linearGradient>
		<filter x="-50%" y="-50%" width="200%" height="200%" id="f8" ><feDropShadow dx="0" dy="0" stdDeviation="2.0833333333333335" flood-color="#00baff" flood-opacity="1.5"/></filter>
	</defs>
	<style>
		.s0 { filter: url(#f1);fill: url(#g1) } 
		.s1 { filter: url(#f2);fill: #1d576f } 
		.s2 { filter: url(#f3);fill: url(#g2) } 
		.s3 { filter: url(#f4);fill: #1d576f } 
		.s4 { filter: url(#f5);fill: url(#g3) } 
		.s5 { filter: url(#f6);fill: #1d576f } 
		.s6 { filter: url(#f7);fill: url(#g4) } 
		.s7 { filter: url(#f8);fill: #1d576f } 
		.s8 { fill: #ffffff } 
		.s9 { fill: #dddddd } 
		.s10 { fill: #834d17 } 
		.s11 { fill: #009999 } 
		.s12 { fill: #009607 } 
		.s13 { fill: #bf1d5f } 
	</style>
	<g id="Layer">
		<g id="Layer">
			<path id="Layer" class="s0" d="m27.3 53.6c-10.6 0-20.2-6.4-24.3-16.2-4.1-9.9-1.8-21.2 5.7-28.7 7.5-7.5 18.8-9.8 28.7-5.7 9.8 4.1 16.2 13.7 16.2 24.3 0 3.5-0.7 6.9-2 10.1-1.3 3.1-3.3 6-5.7 8.5-2.5 2.4-5.4 4.4-8.5 5.7-3.2 1.3-6.6 2-10.1 2z"/>
		</g>
		<path id="Layer" class="s1" d="m41.7 14.9l-12.4 12.4 12.4 12.4-2 2-12.4-12.4-12.4 12.4-2-2 12.4-12.4-12.4-12.4 2-2 12.4 12.4 12.4-12.4z"/>
	</g>
	<g id="Layer">
		<g id="Layer">
			<path id="Layer" class="s2" d="m83.8 53.5c-10.7 0-20.3-6.4-24.4-16.2-4.1-9.8-1.8-21.2 5.7-28.7 7.5-7.5 18.9-9.8 28.7-5.7 9.8 4.1 16.2 13.7 16.2 24.4 0 3.4-0.7 6.8-2 10-1.4 3.2-3.3 6.1-5.7 8.5-2.4 2.4-5.3 4.3-8.5 5.7-3.2 1.3-6.6 2-10 2z"/>
		</g>
		<path id="Layer" fill-rule="evenodd" class="s3" d="m91 9.9c2.3 0.9 4.4 2.3 6.1 4.1 1.8 1.7 3.2 3.8 4.1 6.1q1.5 3.5 1.5 7.2c0 7.6-4.6 14.5-11.7 17.5-7 2.9-15.2 1.3-20.6-4.1-5.4-5.4-7-13.6-4.1-20.6 3-7.1 9.9-11.7 17.5-11.7q3.7 0 7.2 1.5zm-1.1 32.2c2-0.8 3.7-2 5.2-3.5 1.5-1.5 2.7-3.2 3.5-5.2 0.8-1.9 1.2-4 1.2-6.1 0-6.5-3.9-12.3-9.9-14.8-6-2.5-12.8-1.1-17.4 3.5-4.6 4.6-6 11.4-3.5 17.4 2.5 6 8.3 9.9 14.8 9.9 2.1 0 4.2-0.4 6.1-1.2z"/>
	</g>
	<g id="Layer">
		<g id="Layer">
			<path id="Layer" class="s4" d="m140.3 54.1c-10.6 0-20.2-6.4-24.3-16.2-4.1-9.9-1.8-21.2 5.7-28.7 7.5-7.5 18.8-9.8 28.7-5.7 9.8 4.1 16.2 13.7 16.2 24.3 0 3.5-0.7 6.9-2 10.1-1.3 3.1-3.3 6-5.7 8.5-2.5 2.4-5.4 4.4-8.5 5.7-3.2 1.3-6.6 2-10.1 2z"/>
		</g>
		<path id="Layer" fill-rule="evenodd" class="s5" d="m154.6 13.5v28.6h-28.6v-28.6zm-2.8 2.9h-23v23h23z"/>
	</g>
	<g id="Layer">
		<g id="Layer">
			<path id="Layer" class="s6" d="m196.8 54.8c-10.6 0-20.2-6.4-24.3-16.2-4.1-9.9-1.8-21.2 5.7-28.7 7.5-7.5 18.8-9.8 28.7-5.7 9.8 4.1 16.2 13.7 16.2 24.3 0 3.5-0.7 6.9-2 10.1-1.3 3.1-3.3 6-5.7 8.5-2.5 2.4-5.4 4.4-8.5 5.7-3.2 1.3-6.6 2-10.1 2z"/>
		</g>
		<path id="Layer" fill-rule="evenodd" class="s7" d="m214.4 39.4h-35.2l1.6-2.8 16-27.6 16 27.6zm-4.9-2.8l-12.7-21.9-12.7 21.9z"/>
	</g>
	<g id="Layer">
		<g id="Layer">
			<path id="Layer" class="s8" d="m27.3 111.4c-10.6 0-20.2-6.4-24.3-16.2-4.1-9.9-1.8-21.2 5.7-28.7 7.5-7.5 18.8-9.8 28.7-5.7 9.8 4.1 16.2 13.7 16.2 24.3 0 3.5-0.7 6.9-2 10.1-1.3 3.1-3.3 6-5.7 8.5-2.5 2.4-5.4 4.4-8.5 5.7-3.2 1.3-6.6 2-10.1 2z"/>
			<path id="Layer" fill-rule="evenodd" class="s9" d="m37.7 59.9c3.4 1.4 6.4 3.4 8.9 5.9 2.5 2.5 4.5 5.5 5.9 8.9 1.4 3.3 2.1 6.8 2.1 10.4 0 11-6.7 21-16.9 25.2-10.2 4.2-21.9 1.9-29.7-5.9-7.8-7.8-10.1-19.5-5.9-29.7 4.2-10.2 14.2-16.9 25.2-16.9 3.6 0 7.1 0.7 10.4 2.1zm-20.1 1.8c-3 1.3-5.8 3.2-8.2 5.5-2.3 2.4-4.2 5.2-5.5 8.2-1.2 3.1-1.9 6.4-1.9 9.7 0 10.2 6.2 19.5 15.6 23.4 9.5 3.9 20.4 1.7 27.6-5.5 7.2-7.2 9.4-18.1 5.5-27.6-3.9-9.4-13.2-15.6-23.4-15.6-3.3 0-6.6 0.7-9.7 1.9z"/>
		</g>
		<path id="Layer" class="s10" d="m41.7 72.7l-12.4 12.4 12.4 12.4-2 2-12.4-12.4-12.4 12.4-2-2 12.4-12.4-12.4-12.4 2-2 12.4 12.4 12.4-12.4z"/>
	</g>
	<g id="Layer">
		<g id="Layer">
			<path id="Layer" class="s8" d="m83.8 111.2c-10.6 0-20.2-6.4-24.3-16.2-4.1-9.9-1.8-21.2 5.7-28.7 7.5-7.5 18.8-9.8 28.7-5.7 9.8 4.1 16.2 13.7 16.2 24.3 0 3.5-0.7 6.9-2 10.1-1.3 3.1-3.3 6-5.7 8.5-2.5 2.4-5.4 4.4-8.5 5.7-3.2 1.3-6.6 2-10.1 2z"/>
			<path id="Layer" fill-rule="evenodd" class="s9" d="m94.2 59.9c3.4 1.4 6.4 3.4 8.9 5.9 2.5 2.5 4.5 5.5 5.9 8.9 1.4 3.3 2.1 6.8 2.1 10.4 0 11-6.7 21-16.9 25.2-10.2 4.2-21.9 1.9-29.7-5.9-7.8-7.8-10.1-19.5-5.9-29.7 4.2-10.2 14.2-16.9 25.2-16.9 3.6 0 7.1 0.7 10.4 2.1zm-20.1 1.8c-3 1.3-5.8 3.2-8.2 5.5-2.3 2.4-4.2 5.2-5.5 8.2-1.2 3.1-1.9 6.4-1.9 9.7 0 10.2 6.2 19.5 15.6 23.4 9.5 3.9 20.4 1.7 27.6-5.5 7.2-7.2 9.4-18.1 5.5-27.6-3.9-9.4-13.2-15.6-23.4-15.6-3.3 0-6.6 0.7-9.7 1.9z"/>
		</g>
		<path id="Layer" fill-rule="evenodd" class="s11" d="m91 67.6c2.3 0.9 4.4 2.3 6.1 4.1 1.8 1.7 3.2 3.8 4.1 6.1q1.5 3.4 1.5 7.2c0 7.6-4.6 14.5-11.7 17.5-7 2.9-15.2 1.3-20.6-4.1-5.4-5.4-7-13.6-4.1-20.6 3-7.1 9.9-11.7 17.5-11.7q3.7 0 7.2 1.5zm-1.1 32.2c2-0.8 3.7-2 5.2-3.5 1.5-1.5 2.7-3.2 3.5-5.2 0.8-1.9 1.2-4 1.2-6.1 0-6.5-3.9-12.3-9.9-14.8-6-2.5-12.8-1.1-17.4 3.5-4.6 4.6-6 11.4-3.5 17.4 2.5 6 8.3 9.9 14.8 9.9 2.1 0 4.2-0.4 6.1-1.2z"/>
	</g>
	<g id="Layer">
		<g id="Layer">
			<path id="Layer" class="s8" d="m140.3 111.2c-10.6 0-20.2-6.4-24.3-16.2-4.1-9.9-1.8-21.2 5.7-28.7 7.5-7.5 18.8-9.8 28.7-5.7 9.8 4.1 16.2 13.7 16.2 24.3 0 3.5-0.7 6.9-2 10.1-1.3 3.1-3.3 6-5.7 8.5-2.5 2.4-5.4 4.4-8.5 5.7-3.2 1.3-6.6 2-10.1 2z"/>
			<path id="Layer" fill-rule="evenodd" class="s9" d="m150.7 59.9c3.4 1.4 6.4 3.4 8.9 5.9 2.5 2.5 4.5 5.5 5.9 8.9 1.4 3.3 2.1 6.8 2.1 10.4 0 11-6.7 21-16.9 25.2-10.2 4.2-21.9 1.9-29.7-5.9-7.8-7.8-10.1-19.5-5.9-29.7 4.2-10.2 14.2-16.9 25.2-16.9 3.6 0 7.1 0.7 10.4 2.1zm-20.1 1.8c-3 1.3-5.8 3.2-8.2 5.5-2.3 2.4-4.2 5.2-5.5 8.2-1.2 3.1-1.9 6.4-1.9 9.7 0 10.2 6.2 19.5 15.6 23.4 9.5 3.9 20.4 1.7 27.6-5.5 7.2-7.2 9.4-18.1 5.5-27.6-3.9-9.4-13.2-15.6-23.4-15.6-3.3 0-6.6 0.7-9.7 1.9z"/>
		</g>
		<path id="Layer" fill-rule="evenodd" class="s12" d="m154.6 70.6v28.6h-28.6v-28.6zm-2.8 2.9h-23v23h23z"/>
	</g>
	<g id="Layer">
		<g id="Layer">
			<path id="Layer" class="s8" d="m196.8 111.3c-10.6 0-20.2-6.4-24.3-16.2-4.1-9.9-1.8-21.2 5.7-28.7 7.5-7.5 18.8-9.8 28.7-5.7 9.8 4.1 16.2 13.7 16.2 24.3 0 3.5-0.7 6.9-2 10.1-1.3 3.1-3.3 6-5.7 8.5-2.5 2.4-5.4 4.4-8.5 5.7-3.2 1.3-6.6 2-10.1 2z"/>
			<path id="Layer" fill-rule="evenodd" class="s9" d="m207.2 59.9c3.4 1.4 6.4 3.4 8.9 5.9 2.5 2.5 4.5 5.5 5.9 8.9 1.4 3.3 2.1 6.8 2.1 10.4 0 11-6.7 21-16.9 25.2-10.2 4.2-21.9 1.9-29.7-5.9-7.8-7.8-10.1-19.5-5.9-29.7 4.2-10.2 14.2-16.9 25.2-16.9 3.6 0 7.1 0.7 10.4 2.1zm-20.1 1.8c-3 1.3-5.8 3.2-8.2 5.5-2.3 2.4-4.2 5.2-5.5 8.2-1.2 3.1-1.9 6.4-1.9 9.7 0 10.2 6.2 19.5 15.6 23.4 9.5 3.9 20.4 1.7 27.6-5.5 7.2-7.2 9.4-18.1 5.5-27.6-3.9-9.4-13.2-15.6-23.4-15.6-3.3 0-6.6 0.7-9.7 1.9z"/>
		</g>
		<path id="Layer" fill-rule="evenodd" class="s13" d="m214.4 95.8h-35.2l1.6-2.8 16-27.6 16 27.6zm-4.9-2.8l-12.7-21.9-12.7 21.9z"/>
	</g>
</svg>