<svg version="1.2" xmlns="http://www.w3.org/2000/svg" viewBox="0 0 43 43" width="43" height="43">
	<title>fortnitemeta-svg</title>
	<style>
		.s0 { fill: #fafafa } 
		.s1 { fill: #ffffff } 
		.s2 { fill: #0d0d0d } 
	</style>
	<g id="Layer">
		<g id="Layer">
			<path id="Layer" class="s0" d="m21.2 41.4c-11.2 0-20.2-9-20.2-20.2 0-11.2 9-20.2 20.2-20.2 11.2 0 20.2 9 20.2 20.2 0 11.2-9 20.2-20.2 20.2z"/>
			<path id="Layer" fill-rule="evenodd" class="s1" d="m21.2 42.4c-8.6 0-16.3-5.2-19.6-13.1-3.3-7.9-1.5-17 4.6-23.1 6.1-6.1 15.2-7.9 23.1-4.6 7.9 3.3 13.1 11 13.1 19.6 0 2.8-0.6 5.5-1.6 8.1-1.1 2.6-2.6 4.9-4.6 6.9-2 2-4.3 3.5-6.9 4.6-2.6 1-5.3 1.6-8.1 1.6zm0-40.4c-7.8 0-14.8 4.7-17.7 11.9-3 7.1-1.4 15.4 4.1 20.9 5.5 5.5 13.8 7.1 20.9 4.1 7.2-2.9 11.9-9.9 11.9-17.7 0-2.5-0.5-5-1.5-7.3-0.9-2.4-2.3-4.5-4.1-6.3-1.8-1.8-3.9-3.2-6.3-4.1-2.3-1-4.8-1.5-7.3-1.5z"/>
		</g>
		<g id="Layer">
			<path id="Layer" class="s2" d="m22.3 28.5v3.6l-4.7-1.5v-1.5-2.5-1.7-2.7-12.2c0.9 0.2 1.8 0.4 2.9 0.7 1.1 0.3 2.3 0.7 3.6 1.1q0.6 0.2 1.2 0.4 0.5 0.3 1 0.6 0.6 0.3 1 0.7 0.5 0.4 0.9 0.9 0.3 0.5 0.6 1 0.2 0.5 0.4 1 0.1 0.6 0.2 1.2 0 0.5 0 1.1c0 1.8-0.5 3-1.5 3.7q-0.2 0.1-0.4 0.2-0.2 0.1-0.4 0.2-0.2 0-0.4 0.1-0.2 0-0.4 0-0.3 0-0.5 0-0.3-0.1-0.6-0.1-0.2-0.1-0.5-0.2-0.3-0.1-0.5-0.2v-6.9c0-1-0.3-1.5-0.9-1.7q-0.1 0-0.2 0-0.1-0.1-0.2 0-0.1 0-0.2 0.1 0 0-0.1 0.1-0.1 0.1-0.1 0.2-0.1 0.1-0.2 0.3 0 0.1 0 0.2 0 0.2 0 0.3v12.8z"/>
			<path id="Layer" class="s2" d="m17.2 26.8v2.3q-0.4 0.1-0.8 0.1-0.4 0.1-0.8 0.1-0.5 0.1-0.9 0.1-0.4 0-0.8 0-0.5 0-1.1 0-0.5 0-1.1-0.1-0.5-0.1-1-0.2-0.6-0.1-1.1-0.2c-1.7-0.4-2.6-1.1-2.7-1.9 0-0.6 0.7-1.2 2.2-1.8l1-0.4 5.5-2 1.7-0.5v2.7l-4.1 1.5-1.1 0.4c-0.1 0.1-0.3 0.1-0.4 0.2-0.1 0.1-0.1 0-0.3 0.2-0.2 0.2-0.1 0.4 0.2 0.6l1.5 0.2 1.6-0.3 0.9-0.4 1.7-0.6z"/>
			<path id="Layer" class="s2" d="m35.5 26.2c0 0.7-0.7 1.4-2.2 1.9l-0.7 0.4-6.4 2.3-3.5 1.3v-2.7l6.5-2.4 1.4-0.5c0.6-0.2 0.9-0.4 0.8-0.6-0.1-0.2-0.4-0.3-0.7-0.4h-1.4l-1.1 0.3-1.6 0.5-3.9 1.4v-2.8q0.3-0.1 0.6-0.2 0.4-0.2 0.7-0.3 0.3-0.1 0.6-0.1 0.4-0.1 0.7-0.2 0.3-0.1 0.7-0.1 0.3 0 0.7-0.1 0.3 0 0.7-0.1 0.3 0 0.7 0 0.3 0 0.6 0 0.3 0 0.7 0 0.3 0 0.6 0 0.3 0.1 0.6 0.1 0.3 0 0.6 0.1 0.4 0.1 0.7 0.1 0.3 0.1 0.6 0.2 0.3 0.1 0.6 0.2c1.6 0.5 2.4 1 2.4 1.7z"/>
		</g>
	</g>
</svg>