<svg version="1.2" xmlns="http://www.w3.org/2000/svg" viewBox="0 0 196 97" width="196" height="97">
	<title>abxy-svg</title>
	<defs>
		<filter x="-50%" y="-50%" width="200%" height="200%" id="f1" ><feDropShadow dx="0" dy="0" stdDeviation="2.0833333333333335" flood-color="#ac48e0" flood-opacity="1.5"/></filter>
		<filter x="-50%" y="-50%" width="200%" height="200%" id="f2" ><feDropShadow dx="0" dy="0" stdDeviation="2.0833333333333335" flood-color="#ac48e0" flood-opacity="1.5"/></filter>
		<filter x="-50%" y="-50%" width="200%" height="200%" id="f3" ><feDropShadow dx="0" dy="0" stdDeviation="2.0833333333333335" flood-color="#ac48e0" flood-opacity="1.5"/></filter>
		<filter x="-50%" y="-50%" width="200%" height="200%" id="f4" ><feDropShadow dx="0" dy="0" stdDeviation="2.0833333333333335" flood-color="#ac48e0" flood-opacity="1.5"/></filter>
		<filter x="-50%" y="-50%" width="200%" height="200%" id="f5" ><feDropShadow dx="0" dy="0" stdDeviation="2.0833333333333335" flood-color="#ac48e0" flood-opacity="1.5"/></filter>
		<filter x="-50%" y="-50%" width="200%" height="200%" id="f6" ><feDropShadow dx="0" dy="0" stdDeviation="2.0833333333333335" flood-color="#ac48e0" flood-opacity="1.5"/></filter>
		<filter x="-50%" y="-50%" width="200%" height="200%" id="f7" ><feDropShadow dx="0" dy="0" stdDeviation="2.0833333333333335" flood-color="#ac48e0" flood-opacity="1.5"/></filter>
		<filter x="-50%" y="-50%" width="200%" height="200%" id="f8" ><feDropShadow dx="0" dy="0" stdDeviation="2.0833333333333335" flood-color="#ac48e0" flood-opacity="1.5"/></filter>
	</defs>
	<style>
		.s0 { fill: #141414 } 
		.s1 { filter: url(#f1);fill: #ac48e0 } 
		.s2 { filter: url(#f2);fill: #ac48e0 } 
		.s3 { filter: url(#f3);fill: #ac48e0 } 
		.s4 { filter: url(#f4);fill: #ac48e0 } 
		.s5 { fill: #ffffff } 
		.s6 { filter: url(#f5);fill: #ac48e0 } 
		.s7 { filter: url(#f6);fill: #ac48e0 } 
		.s8 { filter: url(#f7);fill: #ac48e0 } 
		.s9 { filter: url(#f8);fill: #ac48e0 } 
	</style>
	<g id="Layer">
		<g id="Layer">
			<g id="A">
				<path id="Layer" class="s0" d="m23.7 0c9.6 0 18.2 5.8 21.9 14.6 3.6 8.9 1.6 19.1-5.2 25.8-6.8 6.8-16.9 8.8-25.8 5.2-8.8-3.7-14.6-12.3-14.6-21.9 0-3.1 0.6-6.2 1.8-9.1 1.2-2.9 2.9-5.5 5.1-7.7 2.2-2.2 4.9-3.9 7.7-5.1 2.9-1.2 6-1.8 9.1-1.8z"/>
			</g>
			<g id="Layer">
				<path id="Layer" fill-rule="evenodd" class="s1" d="m32.4 38.8l-2.7-7.6h-12.2l-2.6 7.6h-5.5l11.5-30.3h5.6l11.5 30.3zm-8.8-25.7h-0.1q0 0.3-0.1 0.5 0 0.3-0.1 0.6 0 0.2-0.1 0.5-0.1 0.3-0.2 0.5l-4.1 11.7h9.3l-4.2-11.7q-0.1-0.2-0.1-0.5-0.1-0.3-0.1-0.5-0.1-0.3-0.1-0.6-0.1-0.2-0.1-0.5z"/>
			</g>
		</g>
		<g id="Layer">
			<g id="B">
				<path id="Layer" class="s0" d="m73.1 0c9.6 0 18.2 5.8 21.9 14.6 3.6 8.9 1.6 19.1-5.2 25.8-6.7 6.8-16.9 8.8-25.8 5.2-8.8-3.7-14.6-12.3-14.6-21.9 0-3.1 0.6-6.2 1.8-9.1 1.2-2.8 2.9-5.5 5.1-7.7 2.2-2.2 4.8-3.9 7.7-5.1 2.9-1.2 6-1.8 9.1-1.8z"/>
			</g>
			<g id="Layer">
				<path id="Layer" fill-rule="evenodd" class="s2" d="m83.3 30q0 0.9-0.2 1.8-0.1 0.9-0.5 1.7-0.4 0.9-1 1.6-0.5 0.7-1.2 1.3-0.8 0.6-1.7 1.1-0.9 0.5-1.9 0.8-1 0.3-2 0.4-1 0.2-2 0.1h-9.9v-30.3h9.6q0.9 0 1.8 0.1 0.9 0.1 1.7 0.3 0.9 0.3 1.7 0.6 0.9 0.4 1.6 0.9 0.6 0.4 1.1 1 0.5 0.6 0.8 1.2 0.4 0.7 0.5 1.4 0.2 0.8 0.1 1.5 0.1 0.6 0 1.2-0.1 0.6-0.3 1.1-0.2 0.6-0.5 1.1-0.3 0.5-0.7 0.9-0.3 0.5-0.8 0.9-0.4 0.5-0.9 0.8-0.6 0.3-1.1 0.6-0.6 0.3-1.2 0.4v0.1q0.8 0.1 1.5 0.3 0.7 0.1 1.3 0.4 0.7 0.4 1.3 0.8 0.6 0.4 1.1 0.9 0.4 0.5 0.8 1.1 0.3 0.6 0.6 1.2 0.2 0.7 0.3 1.3 0.1 0.7 0.1 1.4zm-6.8-13.5q0-0.4 0-0.8-0.1-0.4-0.3-0.8-0.2-0.4-0.4-0.7-0.3-0.3-0.6-0.5-0.5-0.3-0.9-0.5-0.5-0.2-1-0.3-0.5-0.2-1.1-0.2-0.5-0.1-1 0h-3.3v8.4h3.3q0.5 0 1-0.1 0.6 0 1.1-0.2 0.5-0.1 1-0.4 0.4-0.2 0.9-0.5 0.3-0.4 0.6-0.7 0.2-0.4 0.4-0.9 0.2-0.4 0.3-0.9 0-0.5 0-0.9zm1.5 13.4q0-0.5-0.1-1-0.1-0.5-0.3-0.9-0.2-0.5-0.5-0.9-0.3-0.3-0.7-0.6-0.5-0.4-1-0.6-0.6-0.3-1.2-0.4-0.6-0.2-1.2-0.2-0.6-0.1-1.2 0h-3.9v9.4h4.3q0.5 0 1.1-0.1 0.6 0 1.1-0.2 0.6-0.2 1.1-0.4 0.5-0.3 0.9-0.6 0.4-0.4 0.7-0.7 0.3-0.4 0.5-0.9 0.2-0.5 0.3-0.9 0.1-0.5 0.1-1z"/>
			</g>
		</g>
		<g id="Layer">
			<g id="Y">
				<path id="Layer" class="s0" d="m171.9 0c9.6 0 18.2 5.8 21.9 14.6 3.6 8.9 1.6 19.1-5.2 25.8-6.8 6.8-16.9 8.8-25.8 5.2-8.8-3.7-14.6-12.3-14.6-21.9 0-3.1 0.6-6.2 1.8-9.1 1.2-2.8 2.9-5.5 5.1-7.7 2.2-2.2 4.8-3.9 7.7-5.1 2.9-1.2 6-1.8 9.1-1.8z"/>
			</g>
			<g id="Layer">
				<path id="Layer" class="s3" d="m174.3 27.8v11h-5v-10.8l-9.9-19.5h5.7l6.1 12.7q0.1 0.1 0.2 0.3 0 0.1 0.1 0.2 0 0.2 0.1 0.3 0 0.2 0.1 0.3 0.1 0.5 0.2 0.8 0.1-0.2 0.2-0.5 0-0.2 0.1-0.4 0.1-0.3 0.2-0.5 0.1-0.3 0.2-0.5l6.4-12.7h5.3z"/>
			</g>
		</g>
		<g id="Layer">
			<g id="X">
				<path id="Layer" class="s0" d="m122.5 0c9.6 0 18.2 5.8 21.9 14.6 3.6 8.9 1.6 19.1-5.2 25.8-6.7 6.8-16.9 8.8-25.8 5.2-8.8-3.7-14.6-12.3-14.6-21.9 0-3.1 0.6-6.2 1.8-9.1 1.2-2.8 2.9-5.5 5.1-7.7 2.2-2.2 4.8-3.9 7.7-5.1 2.9-1.2 6-1.8 9.1-1.8z"/>
			</g>
			<g id="Layer">
				<path id="Layer" class="s4" d="m129.6 38.8l-6.4-11q-0.1-0.1-0.1-0.2 0 0-0.1-0.1 0-0.1-0.1-0.2 0-0.1 0-0.2 0-0.1-0.1-0.2 0-0.1 0-0.2 0-0.1-0.1-0.2 0-0.1 0-0.2h-0.1q-0.2 0.4-0.3 0.8 0 0.1-0.1 0.2 0 0.1 0 0.2-0.1 0.1-0.1 0.1-0.1 0.1-0.1 0.2l-6.6 11h-6.1l10.2-15.2-9.3-15.1h6.2l5.4 10q0.1 0.3 0.3 0.6 0.1 0.3 0.3 0.5 0.1 0.3 0.2 0.6 0.1 0.3 0.2 0.6h0.1q0.4-1.2 0.6-1.6 0.2-0.3 6.3-10.6h5.7l-9.5 15 9.6 15.3z"/>
			</g>
		</g>
	</g>
	<g id="Layer">
		<g id="Layer">
			<g id="A-2">
				<path id="Layer" class="s5" d="m23.7 49.4c9.6 0 18.2 5.8 21.9 14.6 3.6 8.9 1.6 19-5.2 25.8-6.8 6.8-16.9 8.8-25.8 5.1-8.8-3.6-14.6-12.3-14.6-21.8 0-3.2 0.6-6.2 1.8-9.1 1.2-2.9 2.9-5.5 5.1-7.7 2.2-2.2 4.9-3.9 7.7-5.1 2.9-1.2 6-1.8 9.1-1.8z"/>
			</g>
			<g id="Layer">
				<path id="Layer" fill-rule="evenodd" class="s6" d="m32.4 88.2l-2.7-7.7h-12.2l-2.6 7.7h-5.5l11.5-30.3h5.6l11.5 30.3zm-8.8-25.7h-0.1q0 0.2-0.1 0.5 0 0.3-0.1 0.6 0 0.2-0.1 0.5-0.1 0.3-0.2 0.5l-4.1 11.7h9.3l-4.2-11.7q-0.1-0.2-0.1-0.5-0.1-0.3-0.1-0.5-0.1-0.3-0.1-0.6-0.1-0.3-0.1-0.5z"/>
			</g>
		</g>
		<g id="Layer">
			<g id="B-2">
				<path id="Layer" class="s5" d="m73.1 49.4c9.6 0 18.2 5.7 21.9 14.6 3.6 8.8 1.6 19-5.2 25.8-6.7 6.8-16.9 8.8-25.8 5.1-8.8-3.6-14.6-12.3-14.6-21.8 0-3.2 0.6-6.2 1.8-9.1 1.2-2.9 2.9-5.5 5.1-7.7 2.2-2.2 4.8-3.9 7.7-5.1 2.9-1.2 6-1.8 9.1-1.8z"/>
			</g>
			<g id="Layer">
				<path id="Layer" fill-rule="evenodd" class="s7" d="m83.3 79.4q0 0.9-0.2 1.8-0.1 0.9-0.5 1.7-0.4 0.8-1 1.6-0.5 0.7-1.2 1.3-0.8 0.6-1.7 1.1-0.9 0.5-1.9 0.8-1 0.3-2 0.4-1 0.2-2 0.1h-9.9v-30.3h9.6q0.9 0 1.8 0.1 0.9 0.1 1.7 0.3 0.9 0.2 1.7 0.6 0.9 0.4 1.6 0.9 0.6 0.4 1.1 1 0.5 0.6 0.8 1.2 0.4 0.7 0.5 1.4 0.2 0.7 0.1 1.5 0.1 0.6 0 1.1-0.1 0.6-0.3 1.2-0.2 0.5-0.5 1-0.3 0.6-0.7 1-0.3 0.5-0.8 0.9-0.4 0.4-0.9 0.8-0.5 0.3-1.1 0.6-0.6 0.2-1.2 0.4v0.1q0.8 0.1 1.5 0.2 0.6 0.2 1.3 0.5 0.6 0.3 1.2 0.7 0.6 0.5 1.1 1 0.5 0.5 0.8 1.1 0.4 0.6 0.6 1.2 0.3 0.6 0.4 1.3 0.1 0.7 0.1 1.4zm-6.8-13.6q0-0.4 0-0.8-0.1-0.4-0.3-0.7-0.2-0.4-0.4-0.7-0.3-0.3-0.6-0.6-0.5-0.2-0.9-0.4-0.5-0.2-1-0.4-0.5-0.1-1.1-0.1-0.5-0.1-1-0.1h-3.3v8.4h3.3q0.5 0.1 1 0 0.6-0.1 1.1-0.2 0.5-0.2 1-0.4 0.4-0.2 0.9-0.6 0.3-0.3 0.6-0.7 0.2-0.4 0.4-0.8 0.2-0.5 0.3-0.9 0-0.5 0-1zm1.5 13.4q0-0.4-0.1-0.9-0.1-0.5-0.3-0.9-0.2-0.5-0.5-0.9-0.3-0.4-0.7-0.7-0.5-0.3-1-0.5-0.6-0.3-1.2-0.5-0.6-0.1-1.2-0.2-0.6 0-1.2 0h-3.9v9.4h4.3q0.5 0.1 1.1 0 0.6-0.1 1.1-0.2 0.6-0.2 1.1-0.5 0.5-0.2 0.9-0.6 0.4-0.3 0.7-0.7 0.3-0.4 0.5-0.8 0.2-0.5 0.3-1 0.1-0.5 0.1-1z"/>
			</g>
		</g>
		<g id="Layer">
			<g id="Y-2">
				<path id="Layer" class="s5" d="m171.9 49.4c9.6 0 18.2 5.7 21.9 14.6 3.6 8.8 1.6 19-5.2 25.8-6.8 6.8-16.9 8.8-25.8 5.1-8.8-3.6-14.6-12.3-14.6-21.8 0-3.2 0.6-6.2 1.8-9.1 1.2-2.9 2.9-5.5 5.1-7.7 2.2-2.2 4.8-3.9 7.7-5.1 2.9-1.2 6-1.8 9.1-1.8z"/>
			</g>
			<g id="Layer">
				<path id="Layer" class="s8" d="m174.3 77.2v11h-5v-10.9l-9.9-19.4h5.7l6.1 12.6q0.1 0.2 0.2 0.3 0 0.2 0.1 0.3 0 0.1 0.1 0.3 0 0.1 0.1 0.3 0.1 0.5 0.2 0.8 0.1-0.2 0.2-0.5 0-0.2 0.1-0.5 0.1-0.2 0.2-0.4 0.1-0.3 0.2-0.5l6.4-12.7h5.3z"/>
			</g>
		</g>
		<g id="Layer">
			<g id="X-2">
				<path id="Layer" class="s5" d="m122.5 49.4c9.6 0 18.2 5.7 21.9 14.6 3.6 8.8 1.6 19-5.2 25.8-6.7 6.8-16.9 8.8-25.8 5.1-8.8-3.6-14.6-12.3-14.6-21.8 0-3.1 0.6-6.2 1.8-9.1 1.2-2.9 2.9-5.5 5.1-7.7 2.2-2.2 4.8-3.9 7.7-5.1 2.9-1.2 6-1.8 9.1-1.8z"/>
			</g>
			<g id="Layer">
				<path id="Layer" class="s9" d="m129.6 88.2l-6.4-11q-0.1-0.1-0.1-0.2 0-0.1-0.1-0.2 0-0.1-0.1-0.2 0-0.1 0-0.2 0-0.1-0.1-0.2 0 0 0-0.1 0-0.1-0.1-0.2 0-0.1 0-0.2h-0.1c-0.1 0.3-0.2 0.5-0.3 0.8q0 0.1-0.1 0.2 0 0 0 0.1-0.1 0.1-0.1 0.2-0.1 0.1-0.1 0.2l-6.6 11h-6.1l10.2-15.2-9.3-15.1h6.2l5.4 10q0.1 0.3 0.3 0.5 0.1 0.3 0.3 0.6 0.1 0.3 0.2 0.6 0.1 0.3 0.2 0.6h0.1q0.4-1.2 0.6-1.6 0.2-0.4 6.3-10.7h5.7l-9.5 15 9.6 15.3z"/>
			</g>
		</g>
	</g>
</svg>