<svg version="1.2" xmlns="http://www.w3.org/2000/svg" viewBox="0 0 807 599" width="807" height="599">
	<title>base (1)-svg</title>
	<style>
		.s0 { fill: #ffffff } 
		.s1 { fill: #e2dbdb } 
		.s2 { fill: #fefefe } 
		.s3 { fill: #bfbaba } 
		.s4 { fill: #121212 } 
		.s5 { fill: #1f1f1f } 
		.s6 { opacity: .1;fill: #e6e6e6 } 
		.s7 { opacity: .1;fill: #000000 } 
		.s8 { opacity: .2;fill: #000000 } 
		.s9 { fill: #000000 } 
		.s10 { fill: #10111a } 
		.s11 { fill: #1a1a1a } 
		.s12 { opacity: .3;fill: #000000 } 
		.s13 { fill: #0b0b0f } 
		.s14 { fill: #080808 } 
		.s15 { fill: #0f0f0f } 
		.s16 { fill: #ff6666 } 
		.s17 { fill: #7cb2e8 } 
		.s18 { fill: #ff69f8 } 
		.s19 { fill: #40e2a0 } 
		.s20 { fill: #050505;stroke: #000000;stroke-width: 2 } 
		.s21 { fill: #f2f2f2 } 
		.s22 { fill: #0a0a0a } 
		.s23 { fill: #cccccc } 
	</style>
	<g id="Layer">
		<path id="Layer" class="s0" d="m801.3 418.6c-2.9-15.5-17.7-102.5-32-144.6-9.4-27.7-13.1-53-17-64.9-12-35.7-33-65.7-33-65.7 0 0-9.5-13.1-10.1-16.3-0.6-3.2-4.7-8.6-4.7-8.6 0 0-17.4-5.7-62.3-5.7-44.9 0-53.7 5-53.7 5q-0.6 0.7-1.3 1.4-0.7 0.6-1.4 1.3-0.8 0.6-1.6 1.1-0.8 0.5-1.6 1c-3.5 1.8-11.7 1.7-11.7 1.7h-33.4q-0.1 0-0.2 0-0.2 0-0.3 0-0.1 0.1-0.2 0.1-0.1 0.1-0.2 0.2-0.1 0.2-0.2 0.5-0.1 0.2-0.2 0.5-0.1 0.2-0.1 0.5-0.1 0.2-0.1 0.5h-266.1q0-0.3-0.1-0.5-0.1-0.3-0.1-0.5-0.1-0.3-0.2-0.5-0.1-0.3-0.2-0.5-0.1-0.1-0.2-0.2-0.1 0-0.2-0.1-0.1 0-0.3 0-0.1 0-0.2 0h-33.4c0 0-8.2 0.2-11.7-1.7q-0.8-0.5-1.6-1-0.8-0.5-1.6-1.1-0.7-0.6-1.4-1.3-0.7-0.7-1.3-1.4c-0.4-0.5-8.8-5-53.7-5-44.9 0-62.3 5.7-62.3 5.7 0 0-4.1 5.3-4.7 8.6-0.6 3.3-10.1 16.3-10.1 16.3 0 0-21 30-33 65.7-4 11.9-7.7 37.2-17 64.9-14.3 42.1-29.1 129.1-32 144.6-4.3 23.2-4.6 90.2-4.6 90.2 0 0 4.5 53.4 36.2 74.9 31.7 21.5 56.7 14 56.7 14 0 0 33.1-8.2 57.8-41.9 24.7-33.7 56.6-129.2 56.6-129.2q0.6-0.8 1.3-1.5 0.6-0.7 1.3-1.4 0.8-0.6 1.5-1.2 0.8-0.7 1.6-1.2 0.7-0.5 1.5-0.9 0.7-0.4 1.5-0.7 0.8-0.4 1.6-0.6 0.9-0.3 1.7-0.4l183.7 0.1 183.7-0.1q0.8 0.1 1.7 0.4 0.8 0.2 1.6 0.6 0.8 0.3 1.5 0.7 0.8 0.4 1.5 0.9 0.8 0.5 1.6 1.2 0.7 0.6 1.5 1.2 0.7 0.7 1.3 1.4 0.7 0.7 1.3 1.5c0.4 0.5 31.9 95.4 56.6 129.2 24.7 33.8 57.8 41.9 57.8 41.9 0 0 25 7.5 56.7-14 31.7-21.5 36.2-74.9 36.2-74.9 0 0-0.3-67-4.7-90.2z"/>
		<g id="Layer" style="opacity: .1">
			<path id="Layer" class="s0" d="m36.6 276c9.4-27.7 13.1-53 17-64.9 12-35.7 33-65.7 33-65.7 0 0 9.5-13.1 10.1-16.3 0.6-3.2 4.7-8.6 4.7-8.6 0 0 17.4-5.7 62.3-5.7 44.9 0 53.7 5 53.7 5q0.6 0.7 1.3 1.4 0.7 0.6 1.4 1.3 0.8 0.6 1.6 1.1 0.8 0.5 1.6 1c3.5 1.8 11.7 1.7 11.7 1.7h33.4q0.1 0 0.2 0 0.2 0 0.3 0 0.1 0.1 0.2 0.1 0.1 0.1 0.2 0.2 0.1 0.2 0.2 0.5 0.1 0.2 0.2 0.5 0.1 0.2 0.1 0.5 0.1 0.2 0.1 0.5h266.2q0-0.3 0.1-0.5 0.1-0.3 0.1-0.5 0.1-0.3 0.2-0.5 0.1-0.3 0.2-0.5 0.1-0.1 0.2-0.2 0.1 0 0.2-0.1 0.1 0 0.3 0 0.1 0 0.2 0h33.4c0 0 8.2 0.2 11.7-1.7q0.8-0.5 1.6-1 0.8-0.5 1.6-1.1 0.7-0.6 1.4-1.3 0.7-0.7 1.3-1.4c0.4-0.5 8.8-5 53.7-5 44.9 0 62.3 5.7 62.3 5.7 0 0 4.1 5.3 4.7 8.6 0.6 3.3 10.1 16.3 10.1 16.3 0 0 21 30 33 65.7 4 11.9 7.7 37.2 17 64.9 14.3 42.1 29.1 129.1 32 144.6 3.9 20.9 4.6 77.3 4.7 88.3v-0.1c0 0-0.3-66.9-4.7-90.1-2.9-15.5-17.7-102.5-32-144.6-9.4-27.7-13.1-53-17-64.9-12-35.7-33-65.7-33-65.7 0 0-9.5-13.1-10.1-16.3-0.6-3.2-4.7-8.6-4.7-8.6 0 0-17.4-5.7-62.3-5.7-44.9 0-53.7 5-53.7 5q-0.6 0.7-1.3 1.4-0.7 0.6-1.4 1.3-0.8 0.6-1.6 1.1-0.8 0.5-1.6 1c-3.5 1.8-11.7 1.7-11.7 1.7h-33.4q-0.1 0-0.2 0-0.2 0-0.3 0-0.1 0.1-0.2 0.1-0.1 0.1-0.2 0.2-0.1 0.2-0.2 0.5-0.1 0.2-0.2 0.5-0.1 0.2-0.1 0.5-0.1 0.2-0.1 0.5h-266.2q0-0.3-0.1-0.5-0.1-0.3-0.1-0.5-0.1-0.3-0.2-0.5-0.1-0.3-0.2-0.5-0.1-0.1-0.2-0.2-0.1 0-0.2-0.1-0.1 0-0.3 0-0.1 0-0.2 0h-33.4c0 0-8.2 0.2-11.7-1.7q-0.8-0.5-1.6-1-0.8-0.5-1.6-1.1-0.7-0.6-1.4-1.3-0.7-0.7-1.3-1.4c-0.4-0.5-8.8-5-53.7-5-44.9 0-62.3 5.7-62.3 5.7 0 0-4.1 5.3-4.7 8.6-0.6 3.3-10.1 16.3-10.1 16.3 0 0-21 30-33 65.7-4 11.9-7.7 37.2-17 64.9-14.3 42.1-29.1 129.1-32 144.6-4.3 23.1-4.6 90.1-4.6 90.1v0.1c0.1-10.9 0.7-67.4 4.7-88.3 2.9-15.4 17.6-102.5 31.9-144.6z"/>
		</g>
		<path id="Layer" class="s1" d="m351.2 360c0-20.3-8.1-39.7-22.4-54.1-14.4-14.3-33.8-22.4-54.1-22.4-20.3 0-39.7 8.1-54.1 22.4-14.3 14.4-22.4 33.8-22.4 54.1q0 0.3 0 0.5 0 0.3 0 0.5 0 0.3 0 0.5 0.1 0.3 0.1 0.5c0 0.7-0.1 1.3-0.1 2 0 20.3 8.1 39.7 22.4 54.1 14.4 14.3 33.8 22.4 54.1 22.4 20.3 0 39.7-8.1 54.1-22.4 14.3-14.4 22.4-33.8 22.4-54.1q0-0.3 0-0.5 0-0.3 0-0.5 0-0.3 0-0.5-0.1-0.3-0.1-0.5c0-0.7 0.1-1.4 0.1-2z"/>
		<path id="Layer" class="s2" d="m274.7 429c-40.4 0-73-32.6-73-73 0-40.4 32.6-73 73-73 40.4 0 73 32.6 73 73 0 40.4-32.6 73-73 73z"/>
		<path id="Layer" class="s3" d="m274.7 407.5c-28.5 0-51.5-23-51.5-51.5 0-28.5 23-51.5 51.5-51.5 28.5 0 51.5 23 51.5 51.5 0 28.5-23 51.5-51.5 51.5z"/>
		<path id="Layer" class="s1" d="m607.8 360c0-20.3-8.1-39.7-22.4-54.1-14.4-14.3-33.8-22.4-54.1-22.4-20.3 0-39.7 8.1-54.1 22.4-14.3 14.4-22.4 33.8-22.4 54.1q0 0.3 0 0.5 0 0.3 0 0.5 0 0.3 0 0.5 0.1 0.3 0.1 0.5c0 0.7-0.1 1.3-0.1 2 0 20.3 8.1 39.7 22.4 54.1 14.4 14.3 33.8 22.4 54.1 22.4 20.3 0 39.7-8.1 54.1-22.4 14.3-14.4 22.4-33.8 22.4-54.1q0-0.3 0-0.5 0-0.3 0-0.5 0-0.3 0-0.5-0.1-0.3-0.1-0.5 0-0.2 0.1-0.5 0-0.2 0-0.5 0-0.2 0-0.5 0-0.2 0-0.5z"/>
		<path id="Layer" class="s2" d="m531.3 429c-40.4 0-73-32.6-73-73 0-40.4 32.6-73 73-73 40.4 0 73 32.6 73 73 0 40.4-32.6 73-73 73z"/>
		<path id="Layer" class="s3" d="m531.3 407.5c-28.5 0-51.5-23-51.5-51.5 0-28.5 23-51.5 51.5-51.5 28.5 0 51.5 23 51.5 51.5 0 28.5-23 51.5-51.5 51.5z"/>
		<path id="Layer" class="s4" d="m534.8 128q-0.2-1.2-0.7-2.2-0.6-1-1.5-1.8-0.9-0.8-2-1.2-1.1-0.4-2.3-0.4h-250.6q-1.2 0-2.3 0.4-1.1 0.4-2 1.2-0.9 0.7-1.5 1.8-0.5 1-0.7 2.2 0 0.3-0.1 0.5 0 0.3 0 0.5 0 0.3 0 0.6 0 0.2 0 0.5v127.4c0 2.1 0.4 4.2 1.2 6.2 0.8 1.9 2 3.7 3.5 5.2 1.5 1.5 3.3 2.7 5.2 3.5 2 0.8 4.1 1.2 6.2 1.2h231.6c2.1 0 4.2-0.4 6.2-1.2 1.9-0.8 3.7-2 5.2-3.5 1.5-1.5 2.7-3.3 3.5-5.2 0.8-2 1.2-4.1 1.2-6.2v-127.4q0-0.3 0-0.5 0-0.3 0-0.6 0-0.2 0-0.5-0.1-0.2-0.1-0.5z"/>
		<filter id="f0">
			<feFlood flood-color="#cdcaca" flood-opacity="1" />
			<feBlend mode="normal" in2="SourceGraphic"/>
			<feComposite in2="SourceAlpha" operator="in" />
		</filter>
		<g id="Layer" filter="url(#f0)">
			<path id="Layer" class="s5" d="m230.4 254.1l9.5-8.9q0.2-0.2 0.3-0.4 0.1-0.2 0.1-0.4 0-0.3-0.1-0.5-0.1-0.2-0.3-0.4l-9.5-8.9q-0.2-0.2-0.6-0.3-0.3-0.1-0.6 0.1-0.3 0.1-0.5 0.4-0.2 0.3-0.2 0.6v17.8q0 0.3 0.2 0.6 0.2 0.3 0.5 0.5 0.3 0.1 0.6 0.1 0.3-0.1 0.6-0.3z"/>
			<path id="Layer" class="s5" d="m145 169.8h17.8q0.3 0 0.6-0.2 0.3-0.2 0.4-0.5 0.2-0.3 0.1-0.6-0.1-0.4-0.3-0.6l-8.9-9.5q-0.2-0.2-0.4-0.3-0.2-0.1-0.4-0.1-0.3 0-0.5 0.1-0.2 0.1-0.4 0.3l-8.9 9.5q-0.2 0.3-0.2 0.6-0.1 0.3 0.1 0.6 0.1 0.3 0.4 0.5 0.3 0.2 0.6 0.2z"/>
			<path id="Layer" class="s5" d="m77.5 234.6l-9.5 8.9q-0.2 0.2-0.3 0.4-0.1 0.2-0.1 0.4 0 0.3 0.1 0.5 0.1 0.2 0.3 0.4l9.5 8.9q0.2 0.2 0.6 0.3 0.3 0.1 0.6-0.1 0.3-0.1 0.5-0.4 0.2-0.3 0.2-0.6v-17.8q0-0.3-0.2-0.6-0.1-0.3-0.4-0.5-0.4-0.1-0.7-0.1-0.3 0.1-0.6 0.3z"/>
			<path id="Layer" class="s5" d="m162.8 318.8h-17.8q-0.3 0-0.6 0.2-0.3 0.2-0.4 0.5-0.2 0.3-0.1 0.6 0.1 0.4 0.3 0.6l8.9 9.5q0.2 0.2 0.4 0.3 0.2 0.1 0.4 0.1 0.3 0 0.5-0.1 0.2-0.1 0.4-0.3l8.9-9.5q0.2-0.3 0.2-0.6 0.1-0.3-0.1-0.6-0.1-0.3-0.4-0.5-0.3-0.2-0.6-0.2z"/>
		</g>
	</g>
	<g id="Layer">
		<g id="Layer">
			<path id="Layer" class="s6" d="m105.2 544.5c-40.5-2.8-75.8-20.3-87.3-30.5-11.5-10.2-17.5-31.6-17.5-31.6-0.4 15-0.4 26.3-0.4 26.3 0 0 4.5 53.4 36.2 74.9 31.7 21.5 56.7 14 56.7 14 0 0 33.1-8.2 57.8-41.9q2-2.8 3.8-5.8 1.9-2.9 3.7-5.8 1.7-3 3.4-6.1 1.7-3 3.2-6.1c-0.1 0-19.2 15.3-59.6 12.6z"/>
			<path id="Layer" class="s7" d="m105.2 544.5c-40.5-2.8-75.8-20.3-87.3-30.5-11.5-10.2-17.5-31.6-17.5-31.6-0.4 15-0.4 26.3-0.4 26.3 0 0 4.5 53.4 36.2 74.9 31.7 21.5 56.7 14 56.7 14 0 0 33.1-8.2 57.8-41.9q2-2.8 3.8-5.8 1.9-2.9 3.7-5.8 1.7-3 3.4-6.1 1.7-3 3.2-6.1c-0.1 0-19.2 15.3-59.6 12.6z"/>
			<path id="Layer" class="s8" d="m90 592.5c-12.5 1.8-31.3-2-45.1-7.7-13.6-5.7-24-16.4-24-16.4q1.6 2.2 3.3 4.3 1.8 2 3.7 4 1.9 1.9 4 3.6 2.1 1.7 4.3 3.3c31.7 21.5 56.7 14 56.7 14 0 0 11.7-2.9 26.3-12.3q-3.6 1.2-7.2 2.3-3.6 1.1-7.2 2-3.7 0.9-7.4 1.6-3.7 0.7-7.4 1.3z"/>
		</g>
		<g id="Layer">
			<path id="Layer" class="s6" d="m700.8 544.5c40.5-2.8 75.8-20.3 87.3-30.5 11.5-10.2 17.5-31.5 17.5-31.5 0.4 15 0.4 26.3 0.4 26.3 0 0-4.5 53.4-36.2 74.9-31.7 21.5-56.7 14-56.7 14 0 0-33.1-8.2-57.8-41.9q-2-2.8-3.8-5.8-1.9-2.9-3.7-5.8-1.7-3-3.4-6.1-1.7-3-3.2-6.1c0.1-0.1 19.2 15.2 59.6 12.5z"/>
			<path id="Layer" class="s7" d="m700.8 544.5c40.5-2.8 75.8-20.3 87.3-30.5 11.5-10.2 17.5-31.5 17.5-31.5 0.4 15 0.4 26.3 0.4 26.3 0 0-4.5 53.4-36.2 74.9-31.7 21.5-56.7 14-56.7 14 0 0-33.1-8.2-57.8-41.9q-2-2.8-3.8-5.8-1.9-2.9-3.7-5.8-1.7-3-3.4-6.1-1.7-3-3.2-6.1c0.1-0.1 19.2 15.2 59.6 12.5z"/>
			<path id="Layer" class="s8" d="m716 592.5c12.5 1.8 31.3-2 45.1-7.7 13.6-5.7 24-16.4 24-16.4q-1.6 2.2-3.3 4.3-1.8 2-3.7 4-1.9 1.9-4 3.6-2.1 1.7-4.3 3.3c-31.7 21.5-56.7 14-56.7 14 0 0-11.7-2.9-26.3-12.3q3.6 1.2 7.2 2.3 3.6 1.1 7.2 2 3.7 0.9 7.4 1.6 3.7 0.7 7.4 1.3z"/>
		</g>
		<g id="Layer">
			<path id="Layer" fill-rule="evenodd" class="s9" d="m245.9 142.9c1.8 0.7 3.3 1.7 4.6 3.1 1.4 1.3 2.4 2.8 3.1 4.6 0.7 1.7 1.1 3.5 1.1 5.4v18.3c0 3.8-1.5 7.4-4.2 10-2.6 2.7-6.2 4.2-10 4.2-3.8 0-7.4-1.5-10-4.2-2.7-2.6-4.2-6.2-4.2-10v-18.3c0-1.9 0.4-3.7 1.1-5.4 0.7-1.7 1.8-3.3 3.1-4.6 1.3-1.3 2.9-2.4 4.6-3.1 1.7-0.7 3.5-1.1 5.4-1.1 1.9 0 3.7 0.4 5.4 1.1zm-10.2 1.6c-1.5 0.6-2.9 1.5-4 2.7-1.2 1.1-2.1 2.5-2.7 4-0.7 1.5-1 3.2-1 4.8v18.3c0 3.3 1.3 6.5 3.7 8.8 2.3 2.4 5.5 3.7 8.8 3.7 3.3 0 6.5-1.3 8.8-3.7 2.4-2.3 3.7-5.5 3.7-8.8v-18.3c0-1.6-0.3-3.3-1-4.8-0.6-1.5-1.5-2.9-2.7-4-1.1-1.2-2.5-2.1-4-2.7-1.5-0.7-3.2-1-4.8-1-1.6 0-3.3 0.3-4.8 1z"/>
			<path id="Layer" class="s10" d="m240.5 143.5c-1.6 0-3.3 0.3-4.8 1-1.5 0.6-2.9 1.5-4 2.7-1.2 1.1-2.1 2.5-2.7 4-0.7 1.5-1 3.2-1 4.8v18.3c0 3.3 1.3 6.5 3.7 8.8 2.3 2.4 5.5 3.7 8.8 3.7 3.3 0 6.5-1.3 8.8-3.7 2.4-2.3 3.7-5.5 3.7-8.8v-18.3c0-1.6-0.3-3.3-1-4.8-0.6-1.5-1.5-2.9-2.7-4-1.1-1.2-2.5-2.1-4-2.7-1.5-0.7-3.2-1-4.8-1z"/>
		</g>
		<g id="Layer">
			<path id="Layer" fill-rule="evenodd" class="s9" d="m570.9 142.9c1.8 0.7 3.3 1.7 4.6 3.1 1.4 1.3 2.4 2.8 3.1 4.6 0.7 1.7 1.1 3.5 1.1 5.4v18.3c0 3.8-1.5 7.4-4.2 10-2.6 2.7-6.2 4.2-10 4.2-3.8 0-7.4-1.5-10-4.2-2.7-2.6-4.2-6.2-4.2-10v-18.3c0-1.9 0.4-3.7 1.1-5.4 0.7-1.7 1.8-3.3 3.1-4.6 1.3-1.3 2.9-2.4 4.6-3.1 1.7-0.7 3.5-1.1 5.4-1.1 1.9 0 3.7 0.4 5.4 1.1zm-10.2 1.6c-1.5 0.6-2.9 1.5-4 2.7-1.2 1.1-2.1 2.5-2.7 4-0.7 1.5-1 3.2-1 4.8v18.3c0 1.6 0.3 3.3 1 4.8 0.6 1.5 1.5 2.9 2.7 4 1.1 1.2 2.5 2.1 4 2.7 1.5 0.7 3.2 1 4.8 1 1.6 0 3.3-0.3 4.8-1 1.5-0.6 2.9-1.5 4-2.7 1.2-1.1 2.1-2.5 2.7-4 0.7-1.5 1-3.2 1-4.8v-18.3c0-1.6-0.3-3.3-1-4.8-0.6-1.5-1.5-2.9-2.7-4-1.1-1.2-2.5-2.1-4-2.7-1.5-0.7-3.2-1-4.8-1-1.6 0-3.3 0.3-4.8 1z"/>
			<path id="Layer" class="s10" d="m565.5 143.5c-1.6 0-3.3 0.3-4.8 1-1.5 0.6-2.9 1.5-4 2.7-1.2 1.1-2.1 2.5-2.7 4-0.7 1.5-1 3.2-1 4.8v18.3c0 3.3 1.3 6.5 3.7 8.8 2.3 2.4 5.5 3.7 8.8 3.7 3.3 0 6.5-1.3 8.8-3.7 2.4-2.3 3.7-5.5 3.7-8.8v-18.3c0-1.6-0.3-3.3-1-4.8-0.6-1.5-1.5-2.9-2.7-4-1.1-1.2-2.5-2.1-4-2.7-1.5-0.7-3.2-1-4.8-1z"/>
		</g>
		<g id="Layer">
			<g id="Layer">
				<path id="Layer" class="s11" d="m141.2 247.2c1.4-2 1.2-2.9 1.2-2.9 0 0 0.2-0.9-1.2-2.9-1.4-2-15-13.6-15.7-14-0.7-0.4-28.5-2.2-31.4 1.3-2.9 3.5-2.6 15.6-2.6 15.6 0 0-0.3 12.1 2.6 15.6 2.9 3.5 30.7 1.7 31.4 1.3 0.7-0.4 14.3-12 15.7-14z"/>
				<path id="Layer" class="s12" d="m141.2 247.2c1.4-2 1.2-2.9 1.2-2.9 0 0 0.2-0.9-1.2-2.9-0.9-1.3-6.9-6.6-11.2-10.3q-0.8 1.5-1.5 3.1-0.6 1.6-1 3.3-0.5 1.7-0.7 3.4-0.2 1.7-0.2 3.4 0 1.7 0.2 3.4 0.2 1.7 0.6 3.4 0.5 1.7 1.1 3.3 0.7 1.6 1.5 3.1c4.3-3.7 10.3-9 11.2-10.3z"/>
			</g>
			<g id="Layer">
				<path id="Layer" class="s11" d="m151 231.6c2 1.4 2.9 1.2 2.9 1.2 0 0 0.9 0.2 2.9-1.2 2-1.4 13.6-15 14-15.7 0.4-0.7 2.2-28.5-1.3-31.4-3.5-2.9-15.6-2.6-15.6-2.6 0 0-12.1-0.3-15.6 2.6-3.5 2.9-1.7 30.7-1.3 31.4 0.4 0.7 12 14.3 14 15.7z"/>
				<path id="Layer" class="s12" d="m151 231.6c2 1.4 2.9 1.2 2.9 1.2 0 0 0.9 0.2 2.9-1.2 1.3-0.9 6.6-6.9 10.3-11.2q-1.5-0.8-3.1-1.5-1.6-0.6-3.3-1-1.7-0.5-3.4-0.7-1.7-0.2-3.4-0.2-1.7 0-3.4 0.2-1.7 0.2-3.4 0.6-1.7 0.5-3.3 1.1-1.6 0.7-3.1 1.5c3.8 4.3 9 10.3 10.3 11.2z"/>
			</g>
			<g id="Layer">
				<path id="Layer" class="s11" d="m213.7 228.8c-2.9-3.5-30.7-1.7-31.4-1.3-0.7 0.4-14.3 12-15.7 14-1.4 2-1.2 2.9-1.2 2.9 0 0-0.2 0.9 1.2 2.9 1.4 2 15 13.6 15.7 14 0.7 0.4 28.5 2.2 31.4-1.3 2.9-3.5 2.6-15.6 2.6-15.6 0 0 0.3-12.1-2.6-15.6z"/>
				<path id="Layer" class="s12" d="m177.9 231.2c-4.3 3.7-10.3 9-11.2 10.3-1.4 2-1.2 2.9-1.2 2.9 0 0-0.2 0.9 1.2 2.9 0.9 1.3 6.9 6.6 11.2 10.3q1.7-3 2.5-6.4 0.9-3.3 0.9-6.8 0-3.5-0.9-6.8-0.8-3.4-2.5-6.4z"/>
			</g>
			<g id="Layer">
				<path id="Layer" class="s11" d="m156.8 257.1c-2-1.4-2.9-1.2-2.9-1.2 0 0-0.9-0.2-2.9 1.2-2 1.4-13.6 15-14 15.7-0.4 0.7-2.2 28.5 1.3 31.4 3.5 2.9 15.6 2.6 15.6 2.6 0 0 12.1 0.3 15.6-2.6 3.5-2.9 1.7-30.7 1.3-31.4-0.4-0.7-12-14.3-14-15.7z"/>
				<path id="Layer" class="s12" d="m156.8 257.1c-2-1.4-2.9-1.2-2.9-1.2 0 0-0.9-0.2-2.9 1.2-1.3 0.9-6.6 6.9-10.3 11.2q1.5 0.8 3.1 1.5 1.6 0.6 3.3 1 1.7 0.5 3.4 0.7 1.7 0.2 3.4 0.2 1.7 0 3.4-0.2 1.7-0.2 3.4-0.6 1.7-0.5 3.3-1.1 1.6-0.7 3.1-1.5c-3.7-4.3-9-10.3-10.3-11.2z"/>
			</g>
		</g>
	</g>
	<g id="Layer">
		<g id="Layer">
			<path id="Layer" class="s9" d="m403 320.5c-2.3 0-4.1-1.8-4.1-4.1 0-2.3 1.8-4.1 4.1-4.1 2.3 0 4.1 1.8 4.1 4.1 0 2.3-1.8 4.1-4.1 4.1z"/>
			<path id="Layer" class="s9" d="m403 299.6c-2.3 0-4.1-1.8-4.1-4.1 0-2.3 1.8-4.1 4.1-4.1 2.3 0 4.1 1.8 4.1 4.1 0 2.3-1.8 4.1-4.1 4.1z"/>
			<path id="Layer" class="s9" d="m396.1 309.8c-2.3 0-4.1-1.8-4.1-4.1 0-2.3 1.8-4.1 4.1-4.1 2.3 0 4.1 1.8 4.1 4.1 0 2.3-1.8 4.1-4.1 4.1z"/>
			<path id="Layer" class="s9" d="m381.4 309.8c-2.3 0-4.1-1.8-4.1-4.1 0-2.3 1.8-4.1 4.1-4.1 2.3 0 4.1 1.8 4.1 4.1 0 2.3-1.8 4.1-4.1 4.1z"/>
			<path id="Layer" class="s9" d="m388.7 320.5c-2.3 0-4.1-1.8-4.1-4.1 0-2.3 1.8-4.1 4.1-4.1 2.3 0 4.1 1.8 4.1 4.1 0 2.3-1.8 4.1-4.1 4.1z"/>
			<path id="Layer" class="s9" d="m388.7 299.6c-2.3 0-4.1-1.8-4.1-4.1 0-2.3 1.8-4.1 4.1-4.1 2.3 0 4.1 1.8 4.1 4.1 0 2.3-1.8 4.1-4.1 4.1z"/>
			<path id="Layer" class="s9" d="m374.4 299.6c-2.3 0-4.1-1.8-4.1-4.1 0-2.3 1.8-4.1 4.1-4.1 2.3 0 4.1 1.8 4.1 4.1 0 2.3-1.8 4.1-4.1 4.1z"/>
		</g>
		<g id="Layer">
			<path id="Layer" class="s9" d="m409.9 309.8c-2.3 0-4.1-1.8-4.1-4.1 0-2.3 1.8-4.1 4.1-4.1 2.3 0 4.1 1.8 4.1 4.1 0 2.3-1.8 4.1-4.1 4.1z"/>
			<path id="Layer" class="s9" d="m424.6 309.8c-2.3 0-4.1-1.8-4.1-4.1 0-2.3 1.8-4.1 4.1-4.1 2.3 0 4.1 1.8 4.1 4.1 0 2.3-1.8 4.1-4.1 4.1z"/>
			<path id="Layer" class="s9" d="m421.3 317.1c-0.4 2.2-2.5 3.7-4.7 3.4-2.3-0.4-3.8-2.5-3.4-4.7 0.3-2.3 2.4-3.8 4.7-3.4 2.2 0.3 3.7 2.4 3.4 4.7z"/>
			<path id="Layer" class="s9" d="m421.3 296.2c-0.4 2.2-2.5 3.7-4.7 3.4-2.3-0.4-3.8-2.5-3.4-4.7 0.3-2.3 2.4-3.8 4.7-3.4 2.2 0.3 3.7 2.4 3.4 4.7z"/>
			<path id="Layer" class="s9" d="m431.6 299.6c-2.3 0-4.1-1.8-4.1-4.1 0-2.3 1.8-4.1 4.1-4.1 2.3 0 4.1 1.8 4.1 4.1 0 2.3-1.8 4.1-4.1 4.1z"/>
		</g>
	</g>
	<g id="Layer" style="opacity: .1">
		<path id="Layer" class="s0" d="m403 319.5q-0.8 0-1.5-0.3-0.7-0.2-1.2-0.7-0.6-0.5-0.9-1.2-0.4-0.7-0.5-1.4c0 0.2-0.1 0.3-0.1 0.5 0 1.1 0.4 2.1 1.2 2.9 0.8 0.8 1.8 1.2 2.9 1.2 1.1 0 2.1-0.4 2.9-1.2 0.8-0.8 1.2-1.8 1.2-2.9q0-0.1 0-0.1 0-0.1 0-0.2 0 0 0-0.1-0.1 0-0.1-0.1 0 0.7-0.4 1.4-0.3 0.7-0.8 1.2-0.6 0.5-1.3 0.7-0.7 0.3-1.4 0.3z"/>
		<path id="Layer" class="s0" d="m403 299.6q0.8 0 1.6-0.3 0.7-0.3 1.3-0.9 0.6-0.6 0.9-1.3 0.3-0.8 0.3-1.6 0-0.1 0-0.1 0-0.1 0-0.2 0 0 0-0.1-0.1 0-0.1-0.1-0.1 0.7-0.4 1.4-0.4 0.7-1 1.2-0.5 0.5-1.2 0.7-0.7 0.3-1.5 0.3-0.8 0-1.5-0.3-0.7-0.2-1.2-0.7-0.6-0.5-0.9-1.2-0.4-0.7-0.5-1.4c0 0.2-0.1 0.3-0.1 0.5q0.1 0.8 0.4 1.6 0.4 0.7 1 1.3 0.6 0.5 1.3 0.9 0.8 0.3 1.6 0.3z"/>
		<path id="Layer" class="s0" d="m400.2 305.7q0-0.1 0-0.1 0-0.1 0-0.2 0 0 0-0.1-0.1 0-0.1-0.1-0.1 0.7-0.4 1.4-0.4 0.7-1 1.2-0.5 0.5-1.2 0.7-0.7 0.3-1.5 0.3-0.8 0-1.5-0.3-0.7-0.2-1.2-0.7-0.6-0.5-0.9-1.2-0.4-0.7-0.5-1.4c0 0.2-0.1 0.3-0.1 0.5q0 0.8 0.3 1.6 0.3 0.7 0.9 1.3 0.6 0.6 1.3 0.9 0.8 0.3 1.6 0.3 0.8 0 1.6-0.3 0.8-0.3 1.4-0.8 0.6-0.6 1-1.4 0.3-0.8 0.3-1.6z"/>
		<path id="Layer" class="s0" d="m385.4 305.2q-0.1 0.7-0.4 1.4-0.4 0.7-1 1.2-0.5 0.5-1.2 0.7-0.7 0.3-1.5 0.3-0.8 0-1.5-0.3-0.7-0.2-1.2-0.7-0.6-0.5-0.9-1.2-0.4-0.7-0.5-1.4c0 0.2-0.1 0.3-0.1 0.5 0 1.1 0.4 2.1 1.2 2.9 0.8 0.8 1.8 1.2 2.9 1.2 1.1 0 2.1-0.4 2.9-1.2 0.8-0.8 1.2-1.8 1.2-2.9 0.2-0.2 0.2-0.3 0.1-0.5z"/>
		<path id="Layer" class="s0" d="m388.8 319.5q-0.8 0-1.5-0.3-0.7-0.2-1.2-0.7-0.6-0.5-0.9-1.2-0.4-0.7-0.5-1.4c0 0.2-0.1 0.3-0.1 0.5 0 1.1 0.4 2.1 1.2 2.9 0.8 0.8 1.8 1.2 2.9 1.2 1.1 0 2.1-0.4 2.9-1.2 0.8-0.8 1.2-1.8 1.2-2.9q0-0.1 0-0.1 0-0.1 0-0.2 0 0 0-0.1-0.1 0-0.1-0.1 0 0.7-0.4 1.4-0.3 0.7-0.8 1.2-0.6 0.5-1.3 0.7-0.7 0.3-1.4 0.3z"/>
		<path id="Layer" class="s0" d="m388.8 299.6q0.8 0 1.6-0.3 0.7-0.3 1.3-0.9 0.6-0.6 0.9-1.3 0.3-0.8 0.3-1.6 0-0.1 0-0.1 0-0.1 0-0.2 0 0 0-0.1-0.1 0-0.1-0.1-0.1 0.7-0.4 1.4-0.4 0.7-1 1.2-0.5 0.5-1.2 0.7-0.7 0.3-1.5 0.3-0.8 0-1.5-0.3-0.7-0.2-1.2-0.7-0.6-0.5-0.9-1.2-0.4-0.7-0.5-1.4c0 0.2-0.1 0.3-0.1 0.5q0.1 0.8 0.4 1.6 0.3 0.7 0.9 1.3 0.6 0.6 1.4 0.9 0.8 0.3 1.6 0.3z"/>
		<path id="Layer" class="s0" d="m378.6 295.5q0-0.1 0-0.1 0-0.1 0-0.2 0 0 0-0.1-0.1 0-0.1-0.1-0.1 0.7-0.4 1.4-0.4 0.7-1 1.2-0.5 0.5-1.2 0.7-0.7 0.3-1.5 0.3-0.8 0-1.5-0.3-0.7-0.2-1.2-0.7-0.6-0.5-0.9-1.2-0.4-0.7-0.5-1.4c0 0.2-0.1 0.3-0.1 0.5q0 0.8 0.3 1.6 0.3 0.7 0.9 1.3 0.6 0.6 1.3 0.9 0.8 0.3 1.6 0.3 0.8 0 1.6-0.3 0.8-0.3 1.4-0.9 0.6-0.5 0.9-1.3 0.4-0.8 0.4-1.6z"/>
		<path id="Layer" class="s0" d="m414 305.2q-0.1 0.7-0.4 1.4-0.4 0.7-1 1.2-0.5 0.5-1.2 0.7-0.7 0.3-1.5 0.3-0.8 0-1.5-0.3-0.7-0.2-1.2-0.7-0.6-0.5-0.9-1.2-0.4-0.7-0.5-1.4c0 0.2-0.1 0.3-0.1 0.5 0 1.1 0.4 2.1 1.2 2.9 0.8 0.8 1.8 1.2 2.9 1.2 1.1 0 2.1-0.4 2.9-1.2 0.8-0.8 1.2-1.8 1.2-2.9 0.2-0.2 0.1-0.3 0.1-0.5z"/>
		<path id="Layer" class="s0" d="m424.6 308.8q-0.8 0-1.5-0.3-0.7-0.2-1.2-0.7-0.6-0.5-0.9-1.2-0.4-0.7-0.5-1.4c0 0.2-0.1 0.3-0.1 0.5 0 1.1 0.4 2.1 1.2 2.9 0.8 0.8 1.8 1.2 2.9 1.2 1.1 0 2.1-0.4 2.9-1.2 0.8-0.8 1.2-1.8 1.2-2.9q0-0.1 0-0.1 0-0.1 0-0.2 0 0 0-0.1-0.1 0-0.1-0.1 0 0.7-0.3 1.4-0.3 0.7-0.9 1.2-0.5 0.5-1.2 0.8-0.8 0.2-1.5 0.2z"/>
		<path id="Layer" class="s0" d="m417.3 319.5q-0.8 0-1.5-0.3-0.7-0.2-1.2-0.7-0.6-0.5-0.9-1.2-0.4-0.7-0.5-1.4c0 0.2-0.1 0.3-0.1 0.5 0 1.1 0.4 2.1 1.2 2.9 0.8 0.8 1.8 1.2 2.9 1.2 1.1 0 2.1-0.4 2.9-1.2 0.8-0.8 1.2-1.8 1.2-2.9q0-0.1 0-0.1 0-0.1 0-0.2 0 0 0-0.1-0.1 0-0.1-0.1 0 0.7-0.4 1.4-0.3 0.7-0.8 1.2-0.6 0.5-1.3 0.7-0.7 0.3-1.4 0.3z"/>
		<path id="Layer" class="s0" d="m417.3 299.6q0.8 0 1.6-0.3 0.7-0.3 1.3-0.9 0.6-0.6 0.9-1.3 0.3-0.8 0.3-1.6 0-0.1 0-0.1 0-0.1 0-0.2 0 0 0-0.1-0.1 0-0.1-0.1-0.1 0.7-0.4 1.4-0.4 0.7-1 1.2-0.5 0.5-1.2 0.7-0.7 0.3-1.5 0.3-0.8 0-1.5-0.3-0.7-0.2-1.2-0.7-0.6-0.5-0.9-1.2-0.4-0.7-0.5-1.4c0 0.2-0.1 0.3-0.1 0.5q0.1 0.8 0.4 1.6 0.3 0.7 0.9 1.3 0.6 0.6 1.4 0.9 0.8 0.3 1.6 0.3z"/>
		<path id="Layer" class="s0" d="m431.6 298.6q-0.8 0-1.5-0.3-0.7-0.2-1.2-0.7-0.6-0.5-0.9-1.2-0.4-0.7-0.5-1.4c0 0.2-0.1 0.3-0.1 0.5 0 1.1 0.4 2.1 1.2 2.9 0.8 0.8 1.8 1.2 2.9 1.2 1.1 0 2.1-0.4 2.9-1.2 0.8-0.8 1.2-1.8 1.2-2.9q0-0.1 0-0.1 0-0.1 0-0.2 0 0 0-0.1-0.1 0-0.1-0.1 0 0.7-0.4 1.4-0.3 0.7-0.8 1.2-0.6 0.5-1.3 0.7-0.7 0.3-1.4 0.3z"/>
	</g>
	<path id="Layer" class="s13" d="m436.6 421h-67.9c-2.8 0-4.6 0.6-4.6-2.2q0-1 0.4-1.9 0.4-0.9 1.1-1.6 0.7-0.7 1.6-1.1 0.9-0.4 1.9-0.4h67.9q1 0 1.9 0.4 0.9 0.4 1.6 1.1 0.7 0.7 1.1 1.6 0.4 0.9 0.4 1.9c0.1 2.7-2.6 2.2-5.4 2.2z"/>
	<path id="Layer" class="s9" d="m408.3 418.8h-36.5q-0.2 0-0.3-0.1-0.2 0-0.3-0.2-0.2-0.1-0.2-0.3-0.1-0.1-0.1-0.3 0-0.4 0.2-0.8 0.1-0.3 0.4-0.6 0.3-0.3 0.6-0.4 0.4-0.2 0.8-0.2h34.2q0.4 0 0.8 0.2 0.3 0.1 0.6 0.4 0.3 0.3 0.4 0.6 0.2 0.4 0.2 0.8 0 0.2 0 0.3-0.1 0.2-0.2 0.3-0.1 0.2-0.3 0.2-0.1 0.1-0.3 0.1z"/>
	<path id="Layer" class="s9" d="m430.5 419.6h-4.2q-0.3 0-0.6-0.1-0.4-0.2-0.6-0.4-0.2-0.2-0.4-0.6-0.1-0.3-0.1-0.6 0-0.6 0.2-1.1 0.2-0.5 0.6-0.9 0.4-0.4 0.9-0.6 0.5-0.2 1.1-0.2h1.9q0.6 0 1.1 0.2 0.5 0.2 0.9 0.6 0.4 0.4 0.6 0.9 0.2 0.5 0.2 1.1 0 0.3-0.1 0.7-0.1 0.3-0.3 0.5-0.2 0.3-0.5 0.4-0.4 0.1-0.7 0.1z"/>
	<g id="Layer">
		<path id="Layer" class="s14" d="m530.4 124.3q0-0.4-0.1-0.7-0.2-0.4-0.5-0.6-0.2-0.3-0.6-0.5-0.3-0.1-0.7-0.1h-251.1q-0.4 0-0.7 0.1-0.4 0.2-0.6 0.5-0.3 0.2-0.5 0.6-0.1 0.3-0.1 0.7v129.2c0 2 0.4 4.1 1.2 6 0.8 1.9 1.9 3.6 3.4 5 1.4 1.5 3.1 2.6 5 3.4 1.9 0.8 4 1.2 6 1.2h223.8c2 0 4.1-0.4 6-1.2 1.9-0.8 3.6-1.9 5-3.4 1.5-1.4 2.6-3.1 3.4-5 0.8-1.9 1.2-4 1.2-6v-123.1z"/>
		<g id="Layer" style="opacity: .1">
			<path id="Layer" class="s9" d="m275.5 253.5c0 2 0.4 4.1 1.2 6 0.8 1.9 1.9 3.6 3.4 5 1.4 1.5 3.1 2.6 5 3.4 1.9 0.8 4 1.2 6 1.2h223.8c2 0 4.1-0.4 6-1.2 1.9-0.8 3.6-1.9 5-3.4 1.5-1.4 2.6-3.1 3.4-5 0.8-1.9 1.2-4 1.2-6v-106.5h-255z"/>
		</g>
	</g>
	<g id="Layer">
		<g id="Layer">
			<g id="Layer">
				<path id="Layer" class="s11" d="m709.9 271c-10.6 0-20.2-6.4-24.3-16.2-4.1-9.9-1.8-21.2 5.7-28.7 7.5-7.5 18.8-9.8 28.7-5.7 9.8 4.1 16.2 13.7 16.2 24.3 0 3.5-0.7 6.9-2 10.1-1.3 3.1-3.3 6-5.7 8.5-2.5 2.4-5.4 4.4-8.5 5.7-3.2 1.3-6.6 2-10.1 2z"/>
				<path id="Layer" fill-rule="evenodd" class="s15" d="m720.3 219.6c3.4 1.4 6.4 3.4 8.9 5.9 2.5 2.5 4.5 5.5 5.9 8.9 1.4 3.3 2.1 6.8 2.1 10.4 0 11-6.7 21-16.9 25.2-10.2 4.2-21.9 1.9-29.7-5.9-7.8-7.8-10.1-19.5-5.9-29.7 4.2-10.2 14.2-16.9 25.2-16.9 3.6 0 7.1 0.7 10.4 2.1zm-20.1 1.8c-3 1.3-5.8 3.1-8.1 5.5-2.4 2.3-4.3 5.1-5.5 8.2-1.3 3-2 6.3-2 9.6 0 10.2 6.1 19.4 15.5 23.4 9.5 3.9 20.3 1.7 27.6-5.5 7.2-7.2 9.4-18 5.5-27.5-3.9-9.4-13.1-15.6-23.3-15.6-3.3 0-6.6 0.7-9.7 1.9z"/>
			</g>
			<path id="Layer" fill-rule="evenodd" class="s16" d="m717.1 227.4c2.3 0.9 4.4 2.3 6.1 4.1 1.8 1.7 3.2 3.8 4.1 6.1 1 2.3 1.5 4.7 1.5 7.2 0 7.6-4.6 14.5-11.7 17.5-7 2.9-15.2 1.3-20.6-4.1-5.4-5.4-7-13.6-4.1-20.6 3-7.1 9.9-11.7 17.5-11.7 2.5 0 4.9 0.5 7.2 1.5zm-1.1 32.2c2-0.8 3.7-2 5.2-3.5 1.5-1.5 2.7-3.2 3.5-5.2 0.8-1.9 1.2-4 1.2-6.1 0-6.5-3.9-12.3-9.9-14.8-6-2.5-12.8-1.1-17.4 3.5-4.6 4.6-6 11.4-3.5 17.4 2.5 6 8.3 9.9 14.8 9.9 2.1 0 4.2-0.4 6.1-1.2z"/>
		</g>
		<g id="Layer">
			<g id="Layer">
				<path id="Layer" class="s11" d="m652.3 328.6c-10.6 0-20.2-6.4-24.3-16.2-4.1-9.9-1.8-21.2 5.7-28.7 7.5-7.5 18.8-9.8 28.7-5.7 9.8 4.1 16.2 13.7 16.2 24.3 0 3.5-0.7 6.9-2 10.1-1.3 3.1-3.3 6-5.7 8.5-2.5 2.4-5.4 4.4-8.5 5.7-3.2 1.3-6.6 2-10.1 2z"/>
				<path id="Layer" fill-rule="evenodd" class="s15" d="m662.7 277.2c3.4 1.4 6.4 3.4 8.9 5.9 2.5 2.5 4.5 5.5 5.9 8.9 1.4 3.3 2.1 6.8 2.1 10.4 0 11-6.7 21-16.9 25.2-10.2 4.2-21.9 1.9-29.7-5.9-7.8-7.8-10.1-19.5-5.9-29.7 4.2-10.2 14.2-16.9 25.2-16.9 3.6 0 7.1 0.7 10.4 2.1zm-20.1 1.8c-3 1.3-5.8 3.2-8.2 5.5-2.3 2.4-4.2 5.2-5.5 8.2-1.2 3.1-1.9 6.4-1.9 9.7 0 10.2 6.2 19.5 15.6 23.4 9.5 3.9 20.4 1.7 27.6-5.5 7.2-7.2 9.4-18.1 5.5-27.6-3.9-9.4-13.2-15.6-23.4-15.6-3.3 0-6.6 0.7-9.7 1.9z"/>
			</g>
			<path id="Layer" class="s17" d="m666.7 290l-2-2-12.4 12.4-12.3-12.4-2 2 12.3 12.4-12.3 12.3 2 2 12.3-12.3 12.4 12.3 2-2-12.4-12.3 12.4-12.4z"/>
		</g>
		<g id="Layer">
			<g id="Layer">
				<path id="Layer" class="s11" d="m594.8 271c-10.6 0-20.2-6.4-24.3-16.2-4.1-9.9-1.8-21.2 5.7-28.7 7.5-7.5 18.8-9.8 28.7-5.7 9.8 4.1 16.2 13.7 16.2 24.3 0 3.5-0.7 6.9-2 10.1-1.3 3.1-3.3 6-5.7 8.5-2.5 2.4-5.4 4.4-8.5 5.7-3.2 1.3-6.6 2-10.1 2z"/>
				<path id="Layer" fill-rule="evenodd" class="s15" d="m605.1 219.6c3.4 1.4 6.4 3.4 8.9 5.9 2.5 2.5 4.5 5.5 5.9 8.9 1.4 3.3 2.1 6.8 2.1 10.4 0 11-6.7 21-16.9 25.2-10.2 4.2-21.9 1.9-29.7-5.9-7.8-7.8-10.1-19.5-5.9-29.7 4.2-10.2 14.2-16.9 25.2-16.9 3.6 0 7.1 0.7 10.4 2.1zm-20.1 1.8c-3 1.3-5.8 3.1-8.1 5.5-2.4 2.3-4.3 5.1-5.5 8.2-1.3 3-2 6.3-2 9.6 0 10.2 6.1 19.4 15.5 23.4 9.5 3.9 20.3 1.7 27.6-5.5 7.2-7.2 9.4-18 5.5-27.5-3.9-9.4-13.1-15.6-23.3-15.6-3.3 0-6.6 0.7-9.7 1.9z"/>
			</g>
			<path id="Layer" fill-rule="evenodd" class="s18" d="m609.1 230.4v28.6h-28.6v-28.6zm-2.8 2.9h-23v23h23z"/>
		</g>
		<g id="Layer">
			<g id="Layer">
				<path id="Layer" class="s11" d="m652.3 213.5c-10.6 0-20.2-6.4-24.3-16.2-4.1-9.9-1.8-21.2 5.7-28.7 7.5-7.5 18.8-9.8 28.7-5.7 9.8 4.1 16.2 13.7 16.2 24.3 0 3.5-0.7 6.9-2 10.1-1.3 3.1-3.3 6-5.7 8.5-2.5 2.4-5.4 4.4-8.5 5.7-3.2 1.3-6.6 2-10.1 2z"/>
				<path id="Layer" fill-rule="evenodd" class="s15" d="m662.7 162.1c3.4 1.4 6.4 3.4 8.9 5.9 2.5 2.5 4.5 5.5 5.9 8.9 1.4 3.3 2.1 6.8 2.1 10.4 0 11-6.7 21-16.9 25.2-10.2 4.2-21.9 1.9-29.7-5.9-7.8-7.8-10.1-19.5-5.9-29.7 4.2-10.2 14.2-16.9 25.2-16.9 3.6 0 7.1 0.7 10.4 2.1zm-20.1 1.8c-3 1.3-5.8 3.2-8.2 5.5-2.3 2.4-4.2 5.2-5.5 8.2-1.2 3.1-1.9 6.4-1.9 9.7 0 10.2 6.2 19.5 15.6 23.4 9.5 3.9 20.4 1.7 27.6-5.5 7.2-7.2 9.4-18.1 5.5-27.6-3.9-9.4-13.2-15.6-23.4-15.6-3.3 0-6.6 0.7-9.7 1.9z"/>
			</g>
			<path id="Layer" fill-rule="evenodd" class="s19" d="m669.9 198h-35.2l1.6-2.8 16-27.6 16 27.6zm-4.9-2.8l-12.7-21.9-12.7 21.9z"/>
		</g>
	</g>
	<g id="Layer">
		<path id="Layer" class="s20" d="m403 382.2c-11.2 0-20.2-9-20.2-20.2 0-11.2 9-20.2 20.2-20.2 11.2 0 20.2 9 20.2 20.2 0 11.2-9 20.2-20.2 20.2z"/>
		<g id="Layer">
			<path id="Layer" class="s21" d="m404.1 368.6v-12.8q0-0.1 0-0.3 0-0.1 0-0.2 0.1-0.2 0.2-0.3 0-0.1 0.1-0.2 0.1-0.1 0.1-0.1 0.1-0.1 0.2-0.1 0.1-0.1 0.2 0 0.1 0 0.2 0c0.6 0.2 0.9 0.7 0.9 1.7v6.9q0.2 0.1 0.5 0.2 0.3 0.1 0.5 0.2 0.3 0 0.6 0.1 0.2 0 0.5 0 0.2 0 0.4 0 0.2-0.1 0.4-0.1 0.2-0.1 0.4-0.2 0.2-0.1 0.4-0.2c1-0.7 1.5-1.9 1.5-3.7q0-0.6 0-1.1-0.1-0.6-0.2-1.2-0.2-0.5-0.4-1-0.3-0.5-0.6-1-0.4-0.5-0.9-0.9-0.4-0.4-1-0.7-0.5-0.3-1-0.6-0.6-0.2-1.2-0.4c-1.3-0.4-2.5-0.8-3.6-1.1-1.1-0.3-2-0.5-2.9-0.7v12.2 2.7 1.7 2.5 1.5l4.7 1.5v-3.6z"/>
			<path id="Layer" class="s21" d="m399 367.6l-1.7 0.6-0.9 0.4-1.6 0.3-1.5-0.2c-0.3-0.2-0.4-0.4-0.2-0.6 0.2-0.2 0.2-0.1 0.3-0.2 0.1-0.1 0.3-0.1 0.4-0.2l1.1-0.4 4.1-1.5v-2.7l-1.7 0.5-5.5 2-1 0.4c-1.5 0.6-2.2 1.2-2.2 1.8 0.1 0.8 1 1.5 2.7 1.9q0.5 0.1 1.1 0.2 0.5 0.1 1 0.2 0.6 0.1 1.1 0.1 0.6 0 1.1 0 0.4 0 0.8 0 0.4 0 0.9-0.1 0.4 0 0.8-0.1 0.4 0 0.8-0.1v-2.3z"/>
			<path id="Layer" class="s21" d="m414.8 365.3q-0.3-0.1-0.6-0.2-0.3-0.1-0.6-0.2-0.3 0-0.7-0.1-0.3-0.1-0.6-0.1-0.3 0-0.6-0.1-0.3 0-0.6 0-0.4 0-0.7 0-0.3 0-0.6 0-0.4 0-0.7 0-0.4 0.1-0.7 0.1-0.4 0.1-0.7 0.1-0.4 0-0.7 0.1-0.3 0.1-0.7 0.2-0.3 0-0.6 0.1-0.3 0.1-0.7 0.3-0.3 0.1-0.6 0.2v2.8l3.9-1.4 1.6-0.5 1.1-0.3h1.4c0.3 0.1 0.6 0.2 0.7 0.4 0.1 0.2-0.2 0.4-0.8 0.6l-1.4 0.5-6.5 2.4v2.7l3.5-1.3 6.4-2.3 0.7-0.4c1.5-0.5 2.2-1.2 2.2-1.9 0-0.7-0.8-1.2-2.4-1.7z"/>
		</g>
	</g>
	<g id="Layer">
		<g id="Layer">
			<path id="Layer" class="s22" d="m697.2 109.9q0-0.3-0.1-0.6 0-0.3-0.2-0.5-0.1-0.3-0.3-0.5-0.2-0.2-0.5-0.3c-4.5-2.9-23.4-13.6-51.5-13.6-26.9 0-41.1 5.9-45.1 8q-0.3 0.1-0.5 0.4-0.2 0.2-0.4 0.4-0.1 0.3-0.2 0.6-0.1 0.3-0.1 0.6c0 0.2 9.8-2.9 47.5-2.9 37.7 0 51.4 8.4 51.4 8.4z"/>
			<path id="Layer" class="s4" d="m697.1 116.8v-6.9c0 0-13.7-8.4-51.4-8.4-37.7 0-47.5 2.9-47.5 2.9v11c7.7-1.3 21.2-2.6 44.1-2.6 28.5 0.1 45.9 2.4 54.8 4z"/>
		</g>
		<g id="Layer">
			<path id="Layer" class="s22" d="m108.8 109.9q0-0.3 0.1-0.6 0-0.3 0.2-0.5 0.1-0.3 0.3-0.5 0.2-0.2 0.5-0.3c4.5-2.9 23.4-13.6 51.5-13.6 26.9 0 41.1 5.9 45.1 8q0.3 0.1 0.5 0.4 0.2 0.2 0.4 0.4 0.1 0.3 0.2 0.6 0.1 0.3 0.1 0.6c0 0.2-9.8-2.9-47.5-2.9-37.7 0-51.4 8.4-51.4 8.4z"/>
			<path id="Layer" class="s4" d="m108.9 116.8v-6.9c0 0 13.7-8.4 51.4-8.4 37.7 0 47.5 2.9 47.5 2.9v11c-7.7-1.3-21.2-2.6-44.1-2.6-28.5 0.1-45.9 2.4-54.8 4z"/>
		</g>
	</g>
	<g id="Layer">
		<g id="Layer">
			<g id="Layer">
				<path id="Layer" class="s4" d="m697.2 90.8c0 0-32.7-3.2-50.6-3.2-17.9 0-48.4 2.4-48.4 2.4 0 0 3.1-44.7 4.8-52 1.7-7.3 7.7-21.3 16.9-27.9 9.2-6.6 11.9-10.1 22.7-10.1 10.8 0 25.4 6.4 34.6 21.4 9.2 15 20 69.4 20 69.4z"/>
				<path id="Layer" class="s22" d="m598.7 83.2c0 0 26.1-4.4 49-4.4 22.9 0 47.9 4.4 47.9 4.4 1 4.7 1.6 7.6 1.6 7.6 0 0-32.7-3.2-50.6-3.2-17.9 0-48.4 2.4-48.4 2.4 0 0 0.2-2.7 0.5-6.8z"/>
			</g>
			<g id="Layer" style="opacity: .1">
				<path id="Layer" class="s0" d="m648.7 65.7l-3.2 2.6q-0.5 0.4-0.8 1-0.4 0.5-0.6 1.1-0.3 0.5-0.4 1.2-0.2 0.6-0.2 1.2h9.8v-2.6h-6.3q0.2-0.3 0.4-0.6 0.3-0.2 0.5-0.5 0.3-0.2 0.6-0.4 0.3-0.2 0.6-0.4 0.4-0.2 0.7-0.5 0.4-0.2 0.7-0.5 0.4-0.2 0.7-0.5 0.3-0.3 0.6-0.6 0.3-0.3 0.6-0.7 0.2-0.4 0.4-0.8 0.1-0.4 0.2-0.9 0.1-0.4 0.1-0.9 0-0.5-0.1-0.9-0.1-0.5-0.2-0.9-0.2-0.4-0.5-0.8-0.3-0.4-0.6-0.7-0.4-0.3-0.8-0.5-0.4-0.3-0.8-0.4-0.5-0.2-1-0.2-0.4-0.1-0.9-0.1c-3.1 0-4.7 1.7-4.7 5h2.7q0-2.7 2.1-2.7 0.4 0 0.8 0.1 0.4 0.2 0.7 0.5 0.3 0.3 0.4 0.7 0.2 0.4 0.1 0.8c0.2 1.1-0.4 2-1.6 2.9z"/>
				<path id="Layer" fill-rule="evenodd" class="s0" d="m631.1 72.9h-3v-14.3h7.3q0.4 0 0.9 0 0.4 0.1 0.8 0.2 0.4 0.1 0.8 0.3 0.4 0.2 0.7 0.5 0.3 0.3 0.6 0.6 0.2 0.3 0.4 0.7 0.2 0.4 0.3 0.9 0 0.4 0 0.8 0.1 0.5-0.1 1.1-0.1 0.5-0.4 1-0.3 0.4-0.7 0.8-0.5 0.3-1 0.5 0.5 0.3 0.8 0.6 0.4 0.4 0.6 0.9 0.3 0.4 0.4 1 0.1 0.5 0 1v0.7q0 0.1 0 0.2-0.1 0.1-0.1 0.2 0 0.1 0 0.2 0 0.1 0 0.2c0 0.8 0.2 1.3 0.7 1.5v0.4h-3.3c-0.1-1.3-0.2-2.5-0.3-3.8-0.1-1.3-0.9-1.9-2.4-1.9h-3zm0-8.1h3.5c1.5 0 2.3-0.6 2.3-1.9 0-1.3-0.7-1.9-2.1-1.9h-3.7z"/>
			</g>
		</g>
		<g id="Layer">
			<g id="Layer">
				<path id="Layer" class="s4" d="m108.8 90.8c0 0 32.7-3.2 50.6-3.2 17.9 0 48.3 2.4 48.3 2.4 0 0-3.1-44.7-4.8-52-1.7-7.3-7.7-21.3-16.9-27.9-9.2-6.6-11.8-10.1-22.6-10.1-10.8 0-25.4 6.4-34.6 21.4-9.2 15-20 69.4-20 69.4z"/>
				<path id="Layer" class="s22" d="m207.3 83.2c0 0-26.1-4.4-49-4.4-22.9 0-47.9 4.4-47.9 4.4-1 4.7-1.6 7.6-1.6 7.6 0 0 32.7-3.2 50.6-3.2 17.9 0 48.3 2.4 48.3 2.4 0 0-0.1-2.7-0.4-6.8z"/>
			</g>
			<g id="Layer" style="opacity: .1">
				<path id="Layer" class="s0" d="m173.3 65.7l-3.2 2.6q-0.5 0.4-0.8 1-0.4 0.5-0.6 1.1-0.3 0.5-0.4 1.2-0.2 0.6-0.2 1.2h9.8v-2.6h-6.2q0.2-0.3 0.4-0.6 0.3-0.2 0.5-0.5 0.3-0.2 0.6-0.4 0.3-0.2 0.6-0.4 0.4-0.2 0.7-0.5 0.4-0.2 0.7-0.5 0.4-0.2 0.7-0.5 0.3-0.3 0.6-0.6 0.3-0.3 0.6-0.7 0.2-0.4 0.4-0.8 0.1-0.4 0.2-0.9 0.1-0.4 0.1-0.9 0-0.5-0.1-0.9-0.1-0.5-0.2-0.9-0.2-0.4-0.5-0.8-0.3-0.4-0.6-0.7-0.4-0.3-0.8-0.5-0.4-0.3-0.8-0.4-0.5-0.2-1-0.2-0.4-0.1-0.9-0.1c-3.1 0-4.7 1.7-4.7 5h2.7q0-2.7 2.1-2.7 0.4 0 0.8 0.1 0.4 0.2 0.7 0.5 0.3 0.3 0.4 0.7 0.2 0.4 0.1 0.8c0.1 1.1-0.5 2-1.7 2.9z"/>
				<path id="Layer" class="s0" d="m164.8 70.2h-7v-11.7h-3.1v14.3h10.1v-2.6z"/>
			</g>
		</g>
	</g>
	<g id="Layer">
		<g id="Layer">
			<path id="Layer" fill-rule="evenodd" class="s23" d="m547.6 134.6c-0.1 1-0.5 2-1.3 2.7-0.8 0.7-1.8 1.1-2.8 1.1-1 0-2-0.4-2.8-1.1-0.8-0.7-1.2-1.7-1.3-2.7q0-0.8 0.3-1.5 0.3-0.8 0.9-1.3 0.6-0.5 1.4-0.8 0.7-0.3 1.5-0.2 0.8-0.1 1.6 0.2 0.7 0.2 1.3 0.8 0.6 0.5 0.9 1.3 0.3 0.7 0.3 1.5zm-6.7 0q0 0.5 0.1 1 0.2 0.6 0.6 0.9 0.4 0.4 0.9 0.6 0.5 0.2 1 0.2 0.5 0 1-0.2 0.5-0.2 0.9-0.6 0.4-0.4 0.5-0.9 0.2-0.5 0.2-1c0-0.7-0.3-1.4-0.8-1.8-0.4-0.5-1.1-0.8-1.8-0.8-0.7 0-1.4 0.3-1.8 0.8-0.5 0.4-0.8 1.1-0.8 1.8z"/>
			<path id="Layer" fill-rule="evenodd" class="s23" d="m548.9 131h3.8c2.4 0 2.9 1.3 2.9 2.2 0 0.9-0.5 2.2-2.9 2.2h-2.3v2.8h-1.5zm1.5 3.4h2.2c0.7 0 1.5-0.3 1.5-1.2 0-0.9-0.7-1.2-1.5-1.2h-2.2z"/>
			<path id="Layer" class="s23" d="m556.1 131h6.9v1.1h-2.7v6.1h-1.5v-6.2h-2.7z"/>
			<path id="Layer" class="s23" d="m564.1 131h1.5v7.2h-1.5z"/>
			<path id="Layer" fill-rule="evenodd" class="s23" d="m575.1 134.6c-0.1 1-0.5 2-1.3 2.7-0.8 0.7-1.8 1.1-2.8 1.1-1 0-2-0.4-2.8-1.1-0.8-0.7-1.2-1.7-1.3-2.7q0-0.8 0.3-1.5 0.3-0.8 0.9-1.3 0.6-0.5 1.4-0.8 0.7-0.3 1.5-0.2 0.8-0.1 1.6 0.2 0.7 0.2 1.3 0.8 0.6 0.5 0.9 1.3 0.3 0.7 0.3 1.5zm-6.7 0q0 0.5 0.1 1 0.2 0.6 0.6 0.9 0.4 0.4 0.9 0.6 0.5 0.2 1 0.2 0.5 0 1-0.2 0.5-0.2 0.9-0.6 0.4-0.4 0.5-0.9 0.2-0.5 0.2-1c0-0.7-0.3-1.4-0.8-1.8-0.4-0.5-1.1-0.8-1.8-0.8-0.7 0-1.4 0.3-1.8 0.8-0.5 0.4-0.8 1.1-0.8 1.8z"/>
			<path id="Layer" class="s23" d="m576.5 131h1.6l3.9 5.3v-5.3h1.4v7.2h-1.6l-3.9-5.3v5.3h-1.4z"/>
			<path id="Layer" class="s23" d="m586.2 135.8c0 1.1 1 1.5 2.2 1.5 1.2 0 1.8-0.6 1.8-1.1q0-0.2 0-0.3-0.1-0.2-0.2-0.3-0.1-0.1-0.2-0.2-0.1-0.1-0.3-0.1c-0.6-0.2-1.4-0.3-2.6-0.6-1.5-0.3-1.9-1.1-1.9-1.8 0-1.5 1.6-2.1 3.1-2.1 1.8 0 3.3 0.8 3.3 2.3h-1.5c-0.1-0.9-0.8-1.3-1.8-1.3-0.7 0-1.6 0.2-1.6 0.9 0 0.5 0.4 0.8 1 0.9q0.3 0.1 0.6 0.1 0.3 0.1 0.7 0.2 0.3 0 0.6 0.1 0.3 0.1 0.6 0.2 0.3 0.1 0.6 0.2 0.3 0.2 0.5 0.4 0.3 0.3 0.4 0.6 0.2 0.3 0.2 0.6c0 1.6-1.7 2.3-3.4 2.3-2 0-3.5-0.8-3.6-2.6h1.5z"/>
		</g>
		<g id="Layer">
			<path id="Layer" class="s23" d="m222.2 135.8c0 1.1 1 1.5 2.2 1.5 1.2 0 1.8-0.6 1.8-1.1q0-0.2 0-0.3-0.1-0.2-0.2-0.3-0.1-0.1-0.2-0.2-0.1-0.1-0.3-0.1c-0.6-0.2-1.4-0.3-2.6-0.6-1.5-0.3-1.9-1.1-1.9-1.8 0-1.5 1.6-2.1 3.1-2.1 1.8 0 3.3 0.8 3.3 2.3h-1.5c-0.1-0.9-0.8-1.3-1.8-1.3-0.7 0-1.6 0.2-1.6 0.9 0 0.5 0.4 0.8 1 0.9q0.3 0.1 0.6 0.1 0.3 0.1 0.7 0.2 0.3 0 0.6 0.1 0.3 0.1 0.6 0.2 0.3 0.1 0.6 0.2 0.3 0.2 0.5 0.4 0.3 0.3 0.4 0.6 0.2 0.3 0.2 0.6c0 1.6-1.7 2.3-3.4 2.3-2 0-3.5-0.8-3.6-2.6h1.5z"/>
			<path id="Layer" class="s23" d="m228.9 131h1.5v2.9h3.9v-2.9h1.5v7.2h-1.5v-3.2h-3.9v3.2h-1.5z"/>
			<path id="Layer" fill-rule="evenodd" class="s23" d="m239.9 131h1.6l3.3 7.2h-1.6l-0.8-1.9h-3.4l-0.8 1.9h-1.5zm-0.5 4.3h2.6l-1.3-3.1z"/>
			<path id="Layer" fill-rule="evenodd" class="s23" d="m249.7 131c1.9 0 2.8 0.7 2.8 1.9q0 0.3-0.1 0.6-0.1 0.3-0.3 0.6-0.2 0.2-0.4 0.4-0.3 0.1-0.6 0.2 0.3 0 0.5 0.2 0.3 0.1 0.4 0.3 0.2 0.2 0.3 0.5 0.1 0.2 0.1 0.5c0 0.8 0.1 1.6 0.5 1.9h-1.6q-0.1-0.1-0.1-0.3-0.1-0.1-0.1-0.2 0-0.2 0-0.3 0-0.2 0-0.3c0-1.3-0.3-1.9-1.7-1.9h-2.2v3h-1.5v-7.1zm-0.1 3.2c1 0 1.5-0.4 1.5-1.1 0-0.9-0.7-1.1-1.5-1.1h-2.4v2.2z"/>
			<path id="Layer" class="s23" d="m254.1 131h6.2v1.1h-4.7v1.9h4.3v1h-4.3v2.1h4.7v1.1h-6.2z"/>
		</g>
	</g>
</svg>