<svg version="1.2" xmlns="http://www.w3.org/2000/svg" viewBox="0 0 807 599" width="807" height="599">
	<title>disconnected-svg</title>
	<style>
		tspan { white-space:pre } 
		.s0 { fill: #ed1c24 } 
		.t1 { font-size: 61px;fill: #ffffff;font-weight: 700;font-style: italic;font-family: "DejaVuSans-BoldOblique", "DejaVu Sans" } 
	</style>
	<g id="Layer">
		<path id="Layer" class="s0" d="m806.3 508.7v0.1c-0.2 2.5-3.6 35.7-20.8 59.5-0.5 0.7-1.1 1.4-1.6 2.1q0 0 0 0-0.1 0-0.1 0 0 0 0 0.1 0 0 0 0c-0.5 0.7-1 1.3-1.6 2-0.6 0.6-1.1 1.3-1.7 1.9l-0.2 0.2c-0.6 0.6-1.1 1.2-1.7 1.8l-0.1 0.1c-0.6 0.6-1.2 1.1-1.8 1.7l-0.3 0.3c-0.6 0.6-1.2 1.1-1.8 1.6l-0.1 0.1c-0.6 0.5-1.3 1-1.9 1.5-0.2 0.1-0.3 0.2-0.5 0.3-0.7 0.5-1.3 0.9-2 1.4-31.7 21.5-56.7 14-56.7 14h-0.1q0 0 0 0-0.1-0.1-0.1-0.1 0 0 0 0-0.1 0-0.1 0h-0.1c-0.1 0-0.2-0.1-0.4-0.1-0.1-0.1-0.3-0.1-0.5-0.2h-0.1c-0.2-0.1-0.6-0.1-0.7-0.2-0.1-0.1-0.1-0.1-0.2-0.1q-0.1 0-0.2-0.1-0.1 0-0.2-0.1-0.1 0-0.2 0-0.1-0.1-0.2-0.1h-0.1l-0.9-0.3c-0.1-0.1-0.1-0.1-0.2-0.1-0.4-0.1-0.7-0.3-1.1-0.4-0.1 0-0.2-0.1-0.3-0.1-0.4-0.2-0.8-0.3-1.2-0.5-0.1 0-0.1-0.1-0.2-0.1-0.4-0.2-0.8-0.3-1.2-0.5q0 0 0 0-0.1-0.1-0.1-0.1 0 0 0 0-0.1 0-0.1 0c-0.5-0.2-0.9-0.4-1.4-0.6-0.1 0-0.2-0.1-0.3-0.1q-0.2-0.1-0.4-0.2-0.1-0.1-0.3-0.2-0.2-0.1-0.4-0.1-0.2-0.1-0.4-0.2c-0.1 0-0.2-0.1-0.3-0.1-0.5-0.2-1-0.5-1.5-0.7q0 0 0 0-0.1-0.1-0.1-0.1 0 0 0 0-0.1 0-0.1 0c-0.6-0.3-1.1-0.5-1.7-0.8-0.1-0.1-0.3-0.1-0.4-0.2-0.5-0.3-1.1-0.6-1.7-0.9-0.1-0.1-0.2-0.1-0.3-0.2-0.5-0.3-1.1-0.6-1.7-0.9-0.1 0-0.1-0.1-0.2-0.1-0.6-0.4-1.3-0.7-1.9-1.1q-0.1 0-0.1 0-0.1 0-0.1-0.1-0.1 0-0.1 0-0.1-0.1-0.1-0.1-0.2-0.1-0.5-0.3-0.2-0.1-0.5-0.2-0.2-0.2-0.4-0.3-0.3-0.1-0.5-0.3-0.1 0-0.1 0-0.1 0-0.1-0.1-0.1 0-0.1 0-0.1-0.1-0.1-0.1c-0.7-0.4-1.3-0.8-2-1.2q0 0 0 0 0-0.1 0-0.1 0 0-0.1 0 0 0 0 0-4.6-2.9-8.9-6.3-4.3-3.3-8.2-7-4-3.8-7.6-7.8-3.6-4.1-6.8-8.5c-0.5-0.7-1-1.5-1.5-2.2-0.1-0.2-0.3-0.4-0.4-0.6-0.4-0.7-0.9-1.5-1.4-2.2 0-0.1-0.1-0.1-0.1-0.2-0.5-0.8-1.1-1.6-1.6-2.5-0.1-0.2-0.2-0.3-0.3-0.5-0.5-0.8-1-1.6-1.5-2.5l-0.1-0.1c-0.6-0.9-1.1-1.9-1.7-2.9-0.1-0.1-0.1-0.2-0.2-0.3-0.6-1-1.1-2-1.7-3l-1.8-3.3v-0.1c-21.8-41.6-43.9-108.3-44.3-108.8q-0.6-0.8-1.3-1.5-0.6-0.7-1.3-1.4-0.8-0.6-1.5-1.2-0.8-0.7-1.6-1.2-0.7-0.5-1.5-0.9-0.7-0.4-1.5-0.7-0.8-0.4-1.6-0.6-0.9-0.3-1.7-0.4h-1.9c-7.1 6.9-15.4 12.4-24.6 16.1-9.1 3.8-18.9 5.7-28.8 5.7-9.9 0-19.7-1.9-28.9-5.6-9.2-3.7-17.5-9.2-24.6-16.1h-35.9c0 2.8-2.7 2.2-5.5 2.2h-67.9c-2.8 0-4.6 0.6-4.6-2.2h-36c-7.1 6.9-15.4 12.4-24.6 16.1-9.2 3.7-19 5.6-28.9 5.6-9.9 0-19.7-1.9-28.8-5.7-9.2-3.7-17.5-9.2-24.6-16.1h-1.9q-0.8 0.1-1.7 0.4-0.8 0.2-1.6 0.6-0.8 0.3-1.5 0.7-0.8 0.4-1.5 0.9-0.8 0.5-1.6 1.2-0.7 0.6-1.5 1.2-0.7 0.7-1.3 1.4-0.7 0.7-1.3 1.5c0 0-22.4 67.2-44.3 108.8v0.1l-1.8 3.3c-0.6 1-1.2 2-1.7 3-0.1 0.1-0.1 0.2-0.2 0.3-0.6 1-1.1 1.9-1.7 2.9l-0.1 0.1c-0.5 0.8-1 1.7-1.5 2.5-0.1 0.2-0.2 0.3-0.3 0.5-0.5 0.8-1.1 1.7-1.6 2.5 0 0.1-0.1 0.1-0.1 0.2q-0.2 0.3-0.3 0.6-0.2 0.3-0.4 0.5-0.1 0.3-0.3 0.6-0.2 0.2-0.4 0.5c-0.1 0.2-0.3 0.4-0.4 0.6-0.5 0.8-1 1.5-1.5 2.2q-3.2 4.4-6.8 8.5-3.6 4-7.6 7.7-4 3.8-8.2 7.1-4.3 3.4-8.9 6.3 0 0 0 0 0 0.1 0 0.1 0 0-0.1 0 0 0 0 0c-0.7 0.4-1.3 0.8-2 1.2q-0.1 0-0.1 0-0.1 0-0.1 0.1-0.1 0-0.1 0-0.1 0.1-0.1 0.1c-0.6 0.4-1.3 0.7-1.9 1.1q-0.1 0-0.1 0-0.1 0-0.1 0.1-0.1 0-0.1 0-0.1 0.1-0.1 0.1c-0.7 0.4-1.3 0.8-1.9 1.1-0.1 0-0.1 0.1-0.2 0.1-0.6 0.3-1.1 0.6-1.7 0.9-0.1 0.1-0.2 0.1-0.3 0.2-0.6 0.3-1.1 0.6-1.7 0.9-0.1 0.1-0.3 0.1-0.4 0.2-0.6 0.3-1.2 0.5-1.7 0.8q0 0 0 0-0.1 0.1-0.1 0.1 0 0 0 0-0.1 0-0.1 0-0.2 0.1-0.4 0.2-0.1 0.1-0.3 0.2-0.2 0.1-0.4 0.1-0.2 0.1-0.4 0.2c-0.1 0-0.2 0.1-0.3 0.1q-0.2 0.1-0.4 0.2-0.1 0.1-0.3 0.2-0.2 0.1-0.4 0.1-0.2 0.1-0.4 0.2c-0.1 0-0.2 0.1-0.3 0.1-0.5 0.2-1 0.4-1.4 0.6q0 0 0 0-0.1 0.1-0.1 0.1 0 0 0 0-0.1 0-0.1 0c-0.4 0.2-0.8 0.3-1.2 0.5-0.1 0-0.1 0.1-0.2 0.1q-0.1 0.1-0.3 0.1-0.1 0.1-0.3 0.2-0.1 0-0.3 0.1-0.1 0.1-0.3 0.1c-0.1 0-0.2 0.1-0.3 0.1q-0.1 0.1-0.3 0.1-0.1 0.1-0.2 0.1-0.2 0.1-0.3 0.1-0.2 0.1-0.3 0.1c-0.1 0.1-0.1 0.1-0.2 0.1l-0.9 0.3h-0.1c-0.3 0.1-0.5 0.2-0.8 0.3-0.1 0.1-0.1 0.1-0.2 0.1q-0.1 0-0.2 0-0.1 0.1-0.2 0.1 0 0-0.1 0-0.1 0.1-0.2 0.1h-0.1c-0.2 0.1-0.3 0.2-0.5 0.2-0.1 0-0.3 0.1-0.4 0.1h-0.1c-0.1 0.1-0.1 0.1-0.2 0.1h-0.1c0 0-25 7.5-56.7-14q-0.3-0.2-0.5-0.3-0.3-0.2-0.5-0.4-0.3-0.1-0.5-0.3-0.3-0.2-0.5-0.4c-0.2-0.1-0.3-0.2-0.5-0.3-0.6-0.5-1.3-1-1.9-1.5l-0.1-0.1c-0.6-0.6-1.2-1.1-1.8-1.6l-0.3-0.3c-0.6-0.5-1.2-1.1-1.8-1.7l-0.1-0.1c-0.6-0.6-1.1-1.2-1.7-1.8l-0.2-0.2c-0.6-0.6-1.1-1.2-1.7-1.9-0.5-0.6-1.1-1.3-1.6-2q0 0 0 0-0.1 0-0.1 0 0 0 0-0.1 0 0 0 0c-0.5-0.7-1.1-1.4-1.6-2.1-17.2-23.8-20.6-57-20.8-59.5v-0.2-2.4c0.1-12.4 0.8-67.1 4.6-87.6 2.9-15.5 17.7-102.5 32-144.6 9.3-27.7 13-53 17-64.9 12-35.7 33-65.7 33-65.7 0 0 9.5-13 10.1-16.3 0.6-3.3 4.7-8.6 4.7-8.6 0 0 2.3-0.7 7.4-1.7v-6.9q0-0.3 0.1-0.6 0-0.3 0.2-0.5 0.1-0.3 0.3-0.5 0.2-0.2 0.5-0.3c4.5-2.9 23.3-13.6 51.5-13.6 26.9 0 41.1 6 45.1 8q0.3 0.1 0.5 0.4 0.2 0.2 0.4 0.4 0.1 0.3 0.2 0.6 0.1 0.3 0.1 0.6v11c7.5 1.2 9.2 1.9 9.6 2.4q0.6 0.7 1.3 1.4 0.7 0.7 1.4 1.3 0.8 0.6 1.6 1.1 0.8 0.5 1.6 1c3.5 1.9 11.7 1.7 11.7 1.7h33.4q0.1 0 0.2 0 0.2 0 0.3 0 0.1 0.1 0.2 0.1 0.1 0.1 0.2 0.2 0.1 0.2 0.2 0.5 0.1 0.2 0.2 0.5 0 0.2 0.1 0.5 0.1 0.2 0.1 0.5h1.6q0.4-0.9 0.9-1.6 0.6-0.7 1.4-1.3 0.7-0.5 1.6-0.8 0.9-0.3 1.8-0.4h251.7q0.9 0.1 1.8 0.4 0.9 0.3 1.6 0.8 0.8 0.6 1.4 1.3 0.5 0.7 0.9 1.6h1.6q0-0.3 0.1-0.5 0-0.3 0.1-0.5 0.1-0.3 0.2-0.5 0.1-0.3 0.2-0.5 0.1-0.1 0.2-0.2 0.1 0 0.2-0.1 0.1 0 0.3 0 0.1 0 0.2 0h33.4c0 0 8.2 0.1 11.7-1.7q0.8-0.5 1.6-1 0.8-0.5 1.6-1.1 0.7-0.7 1.4-1.3 0.7-0.7 1.3-1.4c0 0 2.2-1.2 9.6-2.4v-11q0-0.3 0.1-0.6 0.1-0.3 0.2-0.6 0.2-0.2 0.4-0.4 0.2-0.3 0.5-0.4c4-2.1 18.2-8 45.1-8 28.1 0 47 10.7 51.5 13.6q0.3 0.1 0.5 0.3 0.2 0.2 0.3 0.5 0.2 0.2 0.2 0.5 0.1 0.3 0.1 0.6v6.9q0.9 0.1 1.9 0.3 0.9 0.2 1.8 0.4 1 0.2 1.9 0.5 0.9 0.2 1.8 0.5c0 0 4.1 5.4 4.7 8.6 0.6 3.2 10.1 16.3 10.1 16.3 0 0 21 30 33 65.7 3.9 11.9 7.6 37.2 17 64.9 14.3 42.1 29.1 129.1 32 144.6 3.8 20.5 4.5 75.2 4.6 87.6v2.4c0 0.1 0.4 0.1 0.4 0.1z"/>
		<path id="Layer" class="s0" d="m603.4 89.6c-3.1 0.3-5 0.4-5 0.4v-0.1q0-0.2 0-0.5 0-0.2 0-0.4 0-0.2 0.1-0.5 0-0.2 0-0.4v-0.5c0-0.5 0.1-1 0.1-1.6v-2.8c1-12.8 3.1-39.7 4.3-45.2 1.6-7.3 7.8-21.2 16.9-27.9 9.1-6.7 11.8-10.1 22.7-10.1 10.9 0 25.5 6.4 34.6 21.4 8 13 17.1 55.8 19.4 66.8v0.1c0 0.1 0.1 0.3 0.1 0.4v0.1q0 0.1 0.1 0.2 0 0.1 0 0.2 0.1 0.1 0.1 0.2 0 0.1 0 0.2v0.3q0 0 0 0.1 0.1 0 0.1 0 0 0.1 0 0.1 0 0.1 0 0.1v0.3q0 0 0 0.1 0.1 0 0.1 0 0 0.1 0 0.1 0 0.1 0 0.1c0 0-32.7-3.2-50.6-3.2h-1.7c-1.2 0.1-2.4 0.1-3.6 0.1-1.2 0-2.5 0.1-3.8 0.1l-8 0.3c-1.3 0.1-2.7 0.1-4 0.2-5.4 0.3-10.6 0.6-15 0.9-0.5 0-1.1 0.1-1.6 0.1-2.1 0.1-4 0.2-5.3 0.3z"/>
		<text id="Made By NotAE_X" style="transform: matrix(1,0,0,1,110,315)" >
			<tspan x="0" y="0" class="t1">M</tspan><tspan  y="0" class="t1">a</tspan><tspan  y="0" class="t1">d</tspan><tspan  y="0" class="t1">e</tspan><tspan  y="0" class="t1"> </tspan><tspan  y="0" class="t1">B</tspan><tspan  y="0" class="t1">y</tspan><tspan  y="0" class="t1"> </tspan><tspan  y="0" class="t1">N</tspan><tspan  y="0" class="t1">o</tspan><tspan  y="0" class="t1">t</tspan><tspan  y="0" class="t1">A</tspan><tspan  y="0" class="t1">E</tspan><tspan  y="0" class="t1">_</tspan><tspan  y="0" class="t1">X
</tspan>
		</text>
		<path id="Layer" class="s0" d="m159.4 87.6c-17.9 0-50.6 3.2-50.6 3.2q0 0 0-0.1 0.1 0 0.1 0 0-0.1 0-0.1 0-0.1 0-0.1v-0.3q0 0 0-0.1 0.1 0 0.1 0 0-0.1 0-0.1 0-0.1 0-0.1v-0.3c0.1-0.2 0.1-0.5 0.2-0.8v-0.1c0-0.1 0.1-0.2 0.1-0.4v-0.1c2.3-11 11.4-53.8 19.4-66.8 9.2-15 23.8-21.4 34.6-21.4 10.8 0 13.8 3.6 23 10.2 9.2 6.6 15.3 20.6 16.9 27.9 1.2 5.5 3.3 32.4 4.3 45.2v2.7c0 0.6 0.1 1.1 0.1 1.6v0.5c0 1 0.1 1.6 0.1 1.9 0 0-30.4-2.4-48.3-2.4z"/>
	</g>
	<g id="Layer">
	</g>
</svg>