<svg version="1.2" xmlns="http://www.w3.org/2000/svg" viewBox="0 0 179 105" width="179" height="105">
	<title>dpad-svg</title>
	<style>
		.s0 { fill: #ffffff } 
		.s1 { opacity: .3;fill: #000000 } 
		.s2 { fill: #f72424 } 
		.s3 { opacity: .3;fill: #ffffff } 
	</style>
	<g id="Layer">
		<path id="Layer" class="s0" d="m108.8 34.6c-0.7 0.4-28.5 2.2-31.4-1.3-2.9-3.5-2.6-15.6-2.6-15.6 0 0-0.3-12.1 2.6-15.6 2.9-3.5 30.7-1.7 31.4-1.3 0.7 0.4 14.3 12 15.7 14 1.4 2 1.2 2.9 1.2 2.9 0 0 0.2 0.9-1.2 2.9-1.4 2-15 13.6-15.7 14z"/>
		<path id="Layer" class="s1" d="m113.3 30.9q-0.8-1.5-1.5-3.1-0.6-1.6-1-3.3-0.5-1.6-0.7-3.3-0.2-1.8-0.2-3.5 0-1.7 0.2-3.4 0.3-1.7 0.7-3.4 0.4-1.7 1.1-3.3 0.6-1.6 1.4-3.1c4.3 3.7 10.3 9 11.2 10.3 1.4 2 1.2 2.9 1.2 2.9 0 0 0.2 0.9-1.2 2.9-0.9 1.3-6.9 6.6-11.2 10.3z"/>
	</g>
	<g id="Layer">
		<path id="Layer" class="s0" d="m34.6 17c0.4 0.7 2.2 28.5-1.3 31.4-3.5 2.9-15.6 2.6-15.6 2.6 0 0-12.1 0.3-15.6-2.6-3.5-2.9-1.7-30.7-1.3-31.4 0.4-0.7 12-14.3 14-15.7 2-1.4 2.9-1.2 2.9-1.2 0 0 0.9-0.2 2.9 1.2 2 1.3 13.6 15 14 15.7z"/>
		<path id="Layer" class="s1" d="m30.9 12.5q-1.5 0.9-3.1 1.5-1.6 0.6-3.3 1.1-1.6 0.4-3.3 0.6-1.8 0.2-3.5 0.2-1.7 0-3.4-0.2-1.7-0.2-3.4-0.7-1.7-0.4-3.3-1-1.6-0.7-3.1-1.5c3.7-4.3 9-10.3 10.3-11.2 2-1.4 2.9-1.2 2.9-1.2 0 0 0.9-0.2 2.9 1.2 1.3 0.8 6.6 6.8 10.3 11.2z"/>
	</g>
	<g id="Layer">
		<path id="Layer" class="s0" d="m38.2 34.1c-0.4-0.7-2.2-28.5 1.3-31.4 3.5-2.9 15.6-2.6 15.6-2.6 0 0 12.1-0.3 15.6 2.6 3.5 2.9 1.7 30.7 1.3 31.4-0.4 0.7-12 14.3-14 15.7-2 1.4-2.9 1.2-2.9 1.2 0 0-0.9 0.2-2.9-1.2-2-1.4-13.6-15-14-15.7z"/>
		<path id="Layer" class="s1" d="m41.9 38.6q1.5-0.8 3.1-1.5 1.6-0.6 3.3-1 1.7-0.5 3.4-0.7 1.7-0.2 3.4-0.2 1.7 0 3.5 0.2 1.7 0.3 3.3 0.7 1.7 0.4 3.3 1.1 1.6 0.6 3.1 1.4c-3.7 4.3-9 10.3-10.3 11.2-2 1.4-2.9 1.2-2.9 1.2 0 0-0.9 0.2-2.9-1.2-1.3-0.9-6.6-6.9-10.3-11.2z"/>
	</g>
	<g id="Layer">
		<path id="Layer" class="s0" d="m178.5 17.9c0 0 0.3 12.1-2.6 15.6-2.9 3.5-30.7 1.7-31.4 1.3-0.7-0.4-14.3-12-15.7-14-1.4-2-1.2-2.9-1.2-2.9 0 0-0.2-0.9 1.2-2.9 1.4-2 15-13.6 15.7-14 0.7-0.4 28.5-2.2 31.4 1.3 2.8 3.5 2.6 15.6 2.6 15.6z"/>
		<path id="Layer" class="s1" d="m141.5 7.8q0.6 1.6 1 3.3 0.5 1.7 0.7 3.4 0.2 1.7 0.2 3.4 0 1.7-0.2 3.5-0.2 1.7-0.7 3.3-0.4 1.7-1 3.3-0.7 1.6-1.5 3.1c-4.3-3.7-10.3-9-11.2-10.3-1.4-2-1.2-2.9-1.2-2.9 0 0-0.2-0.9 1.2-2.9 0.9-1.3 6.9-6.6 11.2-10.3q0.8 1.5 1.5 3.1z"/>
	</g>
	<g id="Layer">
		<path id="Layer" class="s2" d="m108.8 87.6c-0.7 0.4-28.5 2.2-31.4-1.3-2.9-3.5-2.6-15.6-2.6-15.6 0 0-0.3-12.1 2.6-15.6 2.9-3.5 30.7-1.7 31.4-1.3 0.7 0.4 14.3 12 15.7 14 1.4 2 1.2 2.9 1.2 2.9 0 0 0.2 0.9-1.2 2.9-1.4 2-15 13.6-15.7 14z"/>
		<path id="Layer" class="s3" d="m113.3 83.9q-0.8-1.5-1.5-3.1-0.6-1.6-1-3.3-0.5-1.6-0.7-3.3-0.2-1.8-0.2-3.5 0-1.7 0.2-3.4 0.3-1.7 0.7-3.4 0.4-1.7 1.1-3.3 0.6-1.6 1.4-3.1c4.3 3.7 10.3 9 11.2 10.3 1.4 2 1.2 2.9 1.2 2.9 0 0 0.2 0.9-1.2 2.9-0.9 1.3-6.9 6.6-11.2 10.3z"/>
	</g>
	<g id="Layer">
		<path id="Layer" class="s2" d="m34.6 70c0.4 0.7 2.2 28.5-1.3 31.4-3.5 2.9-15.6 2.6-15.6 2.6 0 0-12.1 0.3-15.6-2.6-3.5-2.9-1.7-30.7-1.3-31.4 0.4-0.7 12-14.3 14-15.7 2-1.4 2.9-1.2 2.9-1.2 0 0 0.9-0.2 2.9 1.2 2 1.3 13.6 15 14 15.7z"/>
		<path id="Layer" class="s3" d="m30.9 65.5q-1.5 0.9-3.1 1.5-1.6 0.6-3.3 1.1-1.6 0.4-3.3 0.6-1.8 0.2-3.5 0.2-1.7 0-3.4-0.2-1.7-0.2-3.4-0.7-1.7-0.4-3.3-1-1.6-0.7-3.1-1.5c3.7-4.3 9-10.3 10.3-11.2 2-1.4 2.9-1.2 2.9-1.2 0 0 0.9-0.2 2.9 1.2 1.3 0.8 6.6 6.8 10.3 11.2z"/>
	</g>
	<g id="Layer">
		<path id="Layer" class="s2" d="m38.2 87.1c-0.4-0.7-2.2-28.5 1.3-31.4 3.5-2.9 15.6-2.6 15.6-2.6 0 0 12.1-0.3 15.6 2.6 3.5 2.9 1.7 30.7 1.3 31.4-0.4 0.7-12 14.3-14 15.7-2 1.4-2.9 1.2-2.9 1.2 0 0-0.9 0.2-2.9-1.2-2-1.4-13.6-15-14-15.7z"/>
		<path id="Layer" class="s3" d="m41.9 91.6q1.5-0.8 3.1-1.5 1.6-0.6 3.3-1 1.7-0.5 3.4-0.7 1.7-0.2 3.4-0.2 1.7 0 3.5 0.2 1.7 0.3 3.3 0.7 1.7 0.4 3.3 1.1 1.6 0.6 3.1 1.4c-3.7 4.3-9 10.3-10.3 11.2-2 1.4-2.9 1.2-2.9 1.2 0 0-0.9 0.2-2.9-1.2-1.3-0.9-6.6-6.9-10.3-11.2z"/>
	</g>
	<g id="Layer">
		<path id="Layer" class="s2" d="m178.5 70.8c0 0 0.3 12.1-2.6 15.6-2.9 3.5-30.7 1.7-31.4 1.3-0.7-0.4-14.3-12-15.7-14-1.4-2-1.2-2.9-1.2-2.9 0 0-0.2-0.9 1.2-2.9 1.4-2 15-13.6 15.7-14 0.7-0.4 28.5-2.2 31.4 1.3 2.8 3.5 2.6 15.6 2.6 15.6z"/>
		<path id="Layer" class="s3" d="m142.6 64q0.8 3.4 0.8 6.8 0 3.5-0.8 6.8-0.9 3.4-2.6 6.4c-4.3-3.7-10.3-9-11.2-10.3-1.4-2-1.2-2.9-1.2-2.9 0 0-0.2-0.9 1.2-2.9 0.9-1.3 6.9-6.6 11.2-10.3q1.7 3.1 2.6 6.4z"/>
	</g>
</svg>