<svg version="1.2" xmlns="http://www.w3.org/2000/svg" viewBox="0 0 29 47" width="29" height="47">
	<title>start-svg</title>
	<style>
		.s0 { fill: #c01111 } 
		.s1 { fill: #f72424 } 
	</style>
	<g id="Layer">
		<path id="Layer" fill-rule="evenodd" class="s0" d="m19.6 1.1c1.7 0.7 3.3 1.8 4.6 3.1 1.3 1.3 2.4 2.9 3.1 4.6 0.7 1.7 1.1 3.5 1.1 5.4v18.3c0 3.8-1.5 7.4-4.2 10-2.6 2.7-6.2 4.2-10 4.2-3.8 0-7.4-1.5-10-4.2-2.7-2.6-4.2-6.2-4.2-10v-18.3c0-1.9 0.4-3.7 1.1-5.4 0.7-1.7 1.8-3.3 3.1-4.6 1.3-1.3 2.9-2.4 4.6-3.1 1.7-0.7 3.5-1.1 5.4-1.1 1.9 0 3.7 0.4 5.4 1.1zm-10.2 1.6c-1.5 0.6-2.9 1.5-4 2.7-1.2 1.1-2.1 2.5-2.7 4-0.7 1.5-1 3.2-1 4.8v18.3c0 3.3 1.3 6.5 3.7 8.8 2.3 2.4 5.5 3.7 8.8 3.7 3.3 0 6.5-1.3 8.8-3.7 2.4-2.3 3.7-5.5 3.7-8.8v-18.3c0-1.6-0.3-3.3-1-4.8-0.6-1.5-1.5-2.9-2.7-4-1.1-1.2-2.5-2.1-4-2.7-1.5-0.7-3.2-1-4.8-1-1.6 0-3.3 0.3-4.8 1z"/>
		<path id="Layer" class="s1" d="m19 2.7c1.5 0.6 2.9 1.5 4 2.7 1.2 1.1 2.1 2.5 2.7 4 0.7 1.5 1 3.2 1 4.8v18.3c0 3.3-1.3 6.5-3.7 8.8-2.3 2.4-5.5 3.7-8.8 3.7-3.3 0-6.5-1.3-8.8-3.7-2.4-2.3-3.7-5.5-3.7-8.8v-18.3c0-1.6 0.3-3.3 1-4.8 0.6-1.5 1.5-2.9 2.7-4 1.1-1.2 2.5-2.1 4-2.7 1.5-0.7 3.2-1 4.8-1 1.6 0 3.3 0.3 4.8 1z"/>
	</g>
</svg>