<svg version="1.2" xmlns="http://www.w3.org/2000/svg" viewBox="0 0 286 94" width="286" height="94">
	<title>sticks-svg</title>
	<style>
		.s0 { fill: #ffffff } 
		.s1 { fill: #eceaea } 
		.s2 { fill: #f72424 } 
		.s3 { fill: #e51e1e } 
		.s4 { fill: #000000 } 
	</style>
	<g id="Layer">
		<g id="Layer">
			<g id="Layer">
				<path id="Layer" class="s0" d="m47 92.5c-18.4 0-35-11.1-42-28.1-7.1-17-3.2-36.6 9.8-49.6 13-13 32.6-16.9 49.6-9.8 17 7 28.1 23.6 28.1 42 0 6-1.2 11.9-3.5 17.4-2.3 5.5-5.6 10.5-9.8 14.8-4.3 4.2-9.3 7.5-14.8 9.8-5.5 2.3-11.4 3.5-17.4 3.5z"/>
				<path id="Layer" fill-rule="evenodd" class="s1" d="m47 3c17.8 0 33.8 10.7 40.7 27.2 6.8 16.4 3 35.3-9.6 47.9-12.6 12.6-31.5 16.4-47.9 9.6-16.5-6.9-27.2-22.9-27.2-40.7 0-5.8 1.1-11.5 3.3-16.8 2.3-5.4 5.5-10.2 9.6-14.3 4.1-4.1 8.9-7.3 14.3-9.6 5.3-2.2 11-3.3 16.8-3.3zm0-3c-19 0-36.1 11.5-43.4 29-7.3 17.6-3.3 37.8 10.2 51.2 13.4 13.5 33.6 17.5 51.2 10.2 17.5-7.3 29-24.4 29-43.4 0-6.2-1.2-12.3-3.6-18-2.3-5.7-5.8-10.9-10.2-15.2-4.3-4.4-9.5-7.9-15.2-10.2-5.7-2.4-11.8-3.6-18-3.6z"/>
			</g>
			<path id="Layer" class="s1" d="m47 74.3c-15.1 0-27.3-12.2-27.3-27.3 0-15.1 12.2-27.3 27.3-27.3 15.1 0 27.3 12.2 27.3 27.3 0 15.1-12.2 27.3-27.3 27.3z"/>
		</g>
		<g id="Layer">
			<g id="Layer">
				<path id="Layer" class="s2" d="m143 92.5c-18.4 0-35-11.1-42-28.1-7.1-17-3.2-36.6 9.8-49.6 13-13 32.6-16.9 49.6-9.8 17 7 28.1 23.6 28.1 42 0 6-1.2 11.9-3.5 17.4-2.3 5.5-5.6 10.5-9.8 14.8-4.3 4.2-9.3 7.5-14.8 9.8-5.5 2.3-11.4 3.5-17.4 3.5z"/>
				<path id="Layer" fill-rule="evenodd" class="s3" d="m143 3c17.8 0 33.8 10.7 40.7 27.2 6.8 16.4 3 35.3-9.6 47.9-12.6 12.6-31.5 16.4-47.9 9.6-16.5-6.9-27.2-22.9-27.2-40.7 0-5.8 1.1-11.5 3.3-16.8 2.3-5.4 5.5-10.2 9.6-14.3 4.1-4.1 8.9-7.3 14.3-9.6 5.3-2.2 11-3.3 16.8-3.3zm0-3c-19 0-36.1 11.5-43.4 29-7.3 17.6-3.3 37.8 10.2 51.2 13.4 13.5 33.6 17.5 51.2 10.2 17.5-7.3 29-24.4 29-43.4 0-6.2-1.2-12.3-3.6-18-2.3-5.7-5.8-10.9-10.2-15.2-4.3-4.4-9.5-7.9-15.2-10.2-5.7-2.4-11.8-3.6-18-3.6z"/>
			</g>
			<path id="Layer" class="s3" d="m143 74.3c-15.1 0-27.3-12.2-27.3-27.3 0-15.1 12.2-27.3 27.3-27.3 15.1 0 27.3 12.2 27.3 27.3 0 15.1-12.2 27.3-27.3 27.3z"/>
			<g id="Layer">
				<path id="Layer" class="s4" d="m125.1 33.5h4.6v22.4h13.4v4h-18z"/>
				<path id="Layer" class="s4" d="m151.9 44.8c2.8 0.1 5.7-0.9 5.7-4.1q0-0.8-0.3-1.5-0.3-0.7-0.9-1.2-0.6-0.6-1.3-0.8-0.7-0.3-1.5-0.2c-2.9 0-4.4 2.6-4.3 5.3h-4.2c0.2-5 3.4-8.8 8.6-8.8 4 0 8.2 2.3 8.2 6.9 0 2.6-1.1 4.7-3.7 5.5v0.1c3 0.6 4.7 3.1 4.7 6.5 0 4.9-4.3 7.9-9.2 7.9-6 0-9-3.6-9.1-9h4.2c-0.1 3.1 1.6 5.5 4.9 5.5 2.8 0 5-1.7 5-4.6 0-4-3.4-4.5-6.8-4.4z"/>
			</g>
		</g>
		<g id="Layer">
			<g id="Layer">
				<path id="Layer" class="s2" d="m239 92.5c-18.4 0-35-11.1-42-28.1-7.1-17-3.2-36.6 9.8-49.6 13-13 32.6-16.9 49.6-9.8 17 7 28.1 23.6 28.1 42 0 6-1.2 11.9-3.5 17.4-2.3 5.5-5.6 10.5-9.8 14.8-4.3 4.2-9.3 7.5-14.8 9.8-5.5 2.3-11.4 3.5-17.4 3.5z"/>
				<path id="Layer" fill-rule="evenodd" class="s3" d="m239 3c17.8 0 33.8 10.7 40.7 27.2 6.8 16.4 3 35.3-9.6 47.9-12.6 12.6-31.5 16.4-47.9 9.6-16.5-6.9-27.2-22.9-27.2-40.7 0-5.8 1.1-11.5 3.3-16.8 2.3-5.4 5.5-10.2 9.6-14.3 4.1-4.1 8.9-7.3 14.3-9.6 5.3-2.2 11-3.3 16.8-3.3zm0-3c-19 0-36.1 11.5-43.4 29-7.3 17.6-3.3 37.8 10.2 51.2 13.4 13.5 33.6 17.5 51.2 10.2 17.5-7.3 29-24.4 29-43.4 0-6.2-1.2-12.3-3.6-18-2.3-5.7-5.8-10.9-10.2-15.2-4.3-4.4-9.5-7.9-15.2-10.2-5.7-2.4-11.8-3.6-18-3.6z"/>
			</g>
			<path id="Layer" class="s3" d="m239 74.3c-15.1 0-27.3-12.2-27.3-27.3 0-15.1 12.2-27.3 27.3-27.3 15.1 0 27.3 12.2 27.3 27.3 0 15.1-12.2 27.3-27.3 27.3z"/>
			<g id="Layer">
				<path id="Layer" fill-rule="evenodd" class="s4" d="m231.3 33.5c5.8 0 8.7 2.7 8.7 7.1 0 5.1-3.5 6.4-4.4 6.7v0.1c1.6 0.2 3.9 1.4 3.9 5.6 0 3.1 0.4 5.9 1.4 7h-5q-0.2-0.5-0.4-0.9-0.1-0.5-0.2-1-0.1-0.5-0.1-1 0-0.5 0-1c0-4.8-1-7-5.3-7h-6.8v10.9h-4.6v-26.5zm-8 12.1h7.6q4.5 0 4.5-4.2c0-3.4-2.2-4-4.6-4h-7.5z"/>
				<path id="Layer" class="s4" d="m250.3 44.8c2.8 0.1 5.7-0.9 5.7-4.1q0-0.8-0.3-1.5-0.3-0.7-0.9-1.2-0.6-0.6-1.3-0.8-0.7-0.3-1.5-0.2c-2.9 0-4.4 2.6-4.3 5.3h-4.2c0.2-5 3.4-8.8 8.6-8.8 4 0 8.2 2.3 8.2 6.9 0 2.6-1.1 4.7-3.7 5.5v0.1c3 0.6 4.7 3.1 4.7 6.5 0 4.9-4.3 7.9-9.2 7.9-6 0-9-3.6-9.1-9h4.2c-0.1 3.1 1.6 5.5 4.9 5.5 2.8 0 5-1.7 5-4.6 0-4-3.4-4.5-6.8-4.4z"/>
			</g>
		</g>
	</g>
</svg>