<svg version="1.2" xmlns="http://www.w3.org/2000/svg" viewBox="0 0 201 91" width="201" height="91">
	<title>triggers-svg</title>
	<style>
		.s0 { fill: #f72424 } 
		.s1 { fill: #b30c0c } 
		.s2 { fill: #000000 } 
		.s3 { fill: #e51e1e } 
	</style>
	<g id="Layer">
		<g id="Layer">
			<path id="Layer" class="s0" d="m200 90.8c0 0-32.7-3.2-50.6-3.2-17.9 0-48.3 2.4-48.3 2.4 0 0 3.1-44.7 4.8-52 1.7-7.3 7.7-21.3 16.9-27.9 9.2-6.6 12-10.1 22.8-10.1 10.8 0 25.4 6.4 34.6 21.4 9.2 15 19.8 69.4 19.8 69.4z"/>
			<path id="Layer" class="s1" d="m101.6 83.2c0 0 26.1-4.4 49-4.4 22.9 0 47.9 4.4 47.9 4.4 1 4.7 1.6 7.6 1.6 7.6 0 0-32.7-3.2-50.6-3.2-17.9 0-48.3 2.4-48.3 2.4 0 0 0-2.7 0.4-6.8z"/>
		</g>
		<g id="Layer" style="opacity: .1">
			<path id="Layer" class="s2" d="m152.3 65.1q0.3-0.3 0.5-0.6 0.2-0.4 0.3-0.8 0.2-0.5 0.2-0.9 0.1-0.4-0.1-0.8-0.1-0.4-0.4-0.7-0.3-0.3-0.7-0.5-0.4-0.1-0.8-0.1-2.1 0-2.1 2.7h-2.7c0-3.3 1.6-5 4.7-5q0.5 0 0.9 0.1 0.5 0 1 0.2 0.4 0.1 0.8 0.4 0.4 0.2 0.8 0.5 0.3 0.3 0.6 0.7 0.3 0.4 0.5 0.8 0.1 0.4 0.2 0.9 0.1 0.4 0.1 0.9 0 0.5-0.1 0.9-0.1 0.5-0.2 0.9-0.2 0.4-0.4 0.8-0.3 0.4-0.6 0.7-0.3 0.3-0.6 0.6-0.3 0.3-0.7 0.5-0.3 0.3-0.7 0.5-0.3 0.3-0.7 0.5-0.3 0.2-0.6 0.4-0.3 0.2-0.6 0.4-0.2 0.3-0.5 0.5-0.2 0.3-0.4 0.6h6.2v2.6h-9.8q0-0.6 0.2-1.2 0.1-0.7 0.4-1.2 0.2-0.6 0.6-1.1 0.3-0.6 0.8-1l3.2-2.6q0.4-0.2 0.7-0.6z"/>
			<path id="Layer" fill-rule="evenodd" class="s2" d="m134 72.8h-3v-14.2h7.3q0.4 0 0.9 0 0.4 0.1 0.8 0.2 0.4 0.1 0.8 0.3 0.4 0.2 0.7 0.5 0.3 0.3 0.6 0.6 0.2 0.3 0.4 0.7 0.2 0.4 0.3 0.9 0 0.4 0 0.8 0.1 0.5-0.1 1.1-0.1 0.5-0.4 1-0.3 0.4-0.7 0.8-0.5 0.3-1 0.5 0.5 0.3 0.8 0.6 0.4 0.4 0.6 0.9 0.3 0.4 0.4 1 0.1 0.5 0 1v0.7q0 0.1 0 0.2-0.1 0.1-0.1 0.2 0 0.1 0 0.2 0 0.1 0 0.2c0 0.8 0.2 1.3 0.7 1.5v0.4h-3.3c-0.1-1.3-0.2-2.5-0.3-3.8-0.1-1.3-0.9-1.9-2.4-1.9h-3zm0-8h3.5c1.5 0 2.3-0.6 2.3-1.9 0-1.3-0.7-1.9-2.1-1.9h-3.7z"/>
		</g>
	</g>
	<g id="Layer">
		<g id="Layer">
			<path id="Layer" class="s0" d="m19.9 21.4c9.2-15 23.8-21.4 34.6-21.4 10.8 0 13.6 3.5 22.8 10.1 9.2 6.6 15.2 20.6 16.9 27.9 1.7 7.3 4.8 52 4.8 52 0 0-30.4-2.4-48.3-2.4-17.9 0-50.6 3.2-50.6 3.2 0 0 10.6-54.4 19.8-69.4z"/>
			<path id="Layer" class="s1" d="m98.9 90c0 0-30.4-2.4-48.3-2.4-17.9 0-50.6 3.2-50.6 3.2 0 0 0.6-2.9 1.6-7.6 0 0 25-4.4 47.9-4.4 22.9 0 49 4.4 49 4.4 0.4 4.1 0.4 6.8 0.4 6.8z"/>
		</g>
		<g id="Layer" style="opacity: .1">
			<path id="Layer" class="s3" d="m65.3 65.2q0.3-0.4 0.5-0.7 0.2-0.4 0.4-0.8 0.1-0.5 0.1-0.9 0.1-0.4-0.1-0.8-0.1-0.4-0.4-0.7-0.3-0.3-0.7-0.5-0.4-0.1-0.8-0.1-2.1 0-2.1 2.7h-2.7c0-3.3 1.6-5 4.7-5q0.5 0 0.9 0.1 0.5 0 1 0.2 0.4 0.1 0.8 0.4 0.4 0.2 0.8 0.5 0.3 0.3 0.6 0.7 0.3 0.4 0.5 0.8 0.1 0.4 0.2 0.9 0.1 0.4 0.1 0.9 0 0.5-0.1 0.9-0.1 0.5-0.2 0.9-0.2 0.4-0.4 0.8-0.3 0.4-0.6 0.7-0.3 0.3-0.6 0.6-0.3 0.3-0.7 0.5-0.3 0.3-0.7 0.5-0.3 0.3-0.7 0.5-0.3 0.2-0.6 0.4-0.3 0.2-0.6 0.4-0.2 0.3-0.5 0.5-0.2 0.3-0.4 0.6h6.2v2.6h-9.8q0-0.6 0.2-1.2 0.1-0.7 0.4-1.2 0.2-0.6 0.6-1.1 0.3-0.6 0.8-1l3.2-2.6q0.4-0.2 0.7-0.5z"/>
			<path id="Layer" class="s3" d="m56.1 70.2v2.6h-10.1v-14.3h3v11.7h7.1z"/>
		</g>
	</g>
</svg>