<svg version="1.2" xmlns="http://www.w3.org/2000/svg" viewBox="0 0 224 113" width="224" height="113">
	<title>face-svg</title>
	<defs>
		<filter x="-50%" y="-50%" width="200%" height="200%" id="f1" ><feDropShadow dx="0" dy="0" stdDeviation="2.0833333333333335" flood-color="#00deff" flood-opacity="1.5"/></filter>
		<filter x="-50%" y="-50%" width="200%" height="200%" id="f2" ><feDropShadow dx="0" dy="0" stdDeviation="2.0833333333333335" flood-color="#00deff" flood-opacity="1.5"/></filter>
		<filter x="-50%" y="-50%" width="200%" height="200%" id="f3" ><feDropShadow dx="0" dy="0" stdDeviation="2.0833333333333335" flood-color="#00deff" flood-opacity="1.5"/></filter>
		<filter x="-50%" y="-50%" width="200%" height="200%" id="f4" ><feDropShadow dx="0" dy="0" stdDeviation="2.0833333333333335" flood-color="#00deff" flood-opacity="1.5"/></filter>
		<filter x="-50%" y="-50%" width="200%" height="200%" id="f5" ><feDropShadow dx="0" dy="0" stdDeviation="2.0833333333333335" flood-color="#00deff" flood-opacity="1.5"/></filter>
		<filter x="-50%" y="-50%" width="200%" height="200%" id="f6" ><feDropShadow dx="0" dy="0" stdDeviation="2.0833333333333335" flood-color="#00deff" flood-opacity="1.5"/></filter>
		<filter x="-50%" y="-50%" width="200%" height="200%" id="f7" ><feDropShadow dx="0" dy="0" stdDeviation="2.0833333333333335" flood-color="#00deff" flood-opacity="1.5"/></filter>
		<filter x="-50%" y="-50%" width="200%" height="200%" id="f8" ><feDropShadow dx="0" dy="0" stdDeviation="2.0833333333333335" flood-color="#00deff" flood-opacity="1.5"/></filter>
	</defs>
	<style>
		.s0 { fill: #e6e6e6 } 
		.s1 { fill: #f0f0f0 } 
		.s2 { fill: #009898 } 
		.s3 { fill: #824e20 } 
		.s4 { fill: #079647 } 
		.s5 { fill: #be1e5f } 
		.s6 { filter: url(#f1);fill: #00deff } 
		.s7 { filter: url(#f2);fill: #00deff } 
		.s8 { filter: url(#f3);fill: #00deff } 
		.s9 { filter: url(#f4);fill: #00deff } 
		.s10 { filter: url(#f5);fill: #00deff } 
		.s11 { filter: url(#f6);fill: #00deff } 
		.s12 { filter: url(#f7);fill: #00deff } 
		.s13 { filter: url(#f8);fill: #00deff } 
	</style>
	<g id="Layer">
		<g id="Layer">
			<g id="Layer">
				<path id="Layer" class="s0" d="m83.8 111.3c-10.6 0-20.2-6.4-24.3-16.2-4.1-9.8-1.8-21.1 5.7-28.6 7.5-7.5 18.8-9.8 28.6-5.7 9.8 4.1 16.2 13.7 16.2 24.3 0 3.4-0.7 6.8-2 10-1.4 3.2-3.3 6.1-5.7 8.5-2.4 2.4-5.3 4.3-8.5 5.7-3.2 1.3-6.6 2-10 2z"/>
				<path id="Layer" fill-rule="evenodd" class="s1" d="m94.2 59.9c3.3 1.4 6.3 3.4 8.8 5.9 2.6 2.6 4.6 5.6 5.9 8.9 1.4 3.3 2.1 6.8 2.1 10.4 0 11-6.7 20.9-16.9 25.1-10.2 4.2-21.9 1.9-29.7-5.9-7.7-7.8-10-19.5-5.8-29.7 4.2-10.2 14.2-16.8 25.2-16.8 3.6 0 7.1 0.7 10.4 2.1zm-20.1 1.8c-3 1.3-5.8 3.2-8.2 5.5-2.3 2.4-4.2 5.2-5.5 8.2-1.2 3.1-1.9 6.4-1.9 9.7 0 10.2 6.2 19.4 15.6 23.3 9.4 3.9 20.3 1.7 27.5-5.5 7.2-7.2 9.4-18.1 5.5-27.5-3.9-9.4-13.1-15.6-23.3-15.6-3.3 0-6.6 0.7-9.7 1.9z"/>
			</g>
			<path id="Layer" fill-rule="evenodd" class="s2" d="m91 67.7c2.3 0.9 4.4 2.3 6.1 4.1 1.8 1.7 3.2 3.8 4.1 6.1 1 2.3 1.5 4.7 1.5 7.2 0 7.6-4.6 14.5-11.7 17.5-7 2.9-15.2 1.3-20.6-4.1-5.4-5.4-7-13.6-4.1-20.6 3-7.1 9.9-11.7 17.5-11.7 2.5 0 4.9 0.5 7.2 1.5zm-1.1 32.2c2-0.8 3.7-2 5.2-3.5 1.5-1.5 2.7-3.2 3.5-5.2 0.8-1.9 1.2-4 1.2-6.1 0-6.5-3.9-12.3-9.9-14.8-6-2.5-12.8-1.1-17.4 3.5-4.6 4.6-6 11.4-3.5 17.4 2.5 6 8.3 9.9 14.8 9.9 2.1 0 4.2-0.4 6.1-1.2z"/>
		</g>
		<g id="Layer">
			<g id="Layer">
				<path id="Layer" class="s0" d="m27.2 111.3c-10.6-0.1-20.1-6.5-24.1-16.3-4-9.8-1.7-21 5.8-28.5 7.6-7.4 18.8-9.7 28.6-5.6 9.7 4.1 16.1 13.6 16.1 24.2 0 3.5-0.7 6.9-2 10.1-1.4 3.2-3.3 6.1-5.8 8.5-2.4 2.4-5.3 4.3-8.5 5.7-3.2 1.3-6.6 1.9-10.1 1.9z"/>
				<path id="Layer" fill-rule="evenodd" class="s1" d="m37.7 59.9c3.4 1.4 6.4 3.4 8.9 5.9 2.5 2.5 4.5 5.5 5.9 8.9 1.4 3.3 2.1 6.8 2.1 10.4 0 11-6.7 21-16.9 25.2-10.2 4.2-21.9 1.9-29.7-5.9-7.8-7.8-10.1-19.5-5.9-29.7 4.2-10.2 14.2-16.9 25.2-16.9 3.6 0 7.1 0.7 10.4 2.1zm-20.1 1.8c-3 1.3-5.8 3.2-8.2 5.5-2.3 2.4-4.2 5.2-5.5 8.2-1.2 3.1-1.9 6.4-1.9 9.7 0 10.2 6.2 19.4 15.6 23.3 9.4 3.9 20.3 1.7 27.5-5.5 7.2-7.2 9.4-18.1 5.5-27.5-3.9-9.4-13.1-15.6-23.3-15.6-3.3 0-6.6 0.7-9.7 1.9z"/>
			</g>
			<path id="Layer" class="s3" d="m41.6 72.7l-12.3 12.4 12.3 12.3-2 2.1-12.3-12.4-12.4 12.4-2-2.1 12.3-12.3-12.3-12.4 2-2 12.4 12.4 12.3-12.4 2 2z"/>
		</g>
		<g id="Layer">
			<g id="Layer">
				<path id="Layer" class="s0" d="m140.3 111.3c-10.6 0-20.2-6.4-24.2-16.2-4.1-9.8-1.8-21.1 5.7-28.6 7.5-7.5 18.8-9.8 28.6-5.7 9.8 4 16.2 13.6 16.2 24.2 0 3.5-0.7 6.9-2 10.1-1.3 3.2-3.2 6.1-5.7 8.5-2.4 2.5-5.3 4.4-8.5 5.7-3.2 1.3-6.6 2-10.1 2z"/>
				<path id="Layer" fill-rule="evenodd" class="s1" d="m150.7 59.9c3.3 1.3 6.3 3.3 8.9 5.9 2.5 2.5 4.5 5.5 5.9 8.8 1.4 3.3 2.1 6.8 2.1 10.4 0 11-6.6 21-16.8 25.2-10.2 4.2-21.9 1.9-29.7-5.8-7.8-7.8-10.1-19.5-5.9-29.7 4.2-10.2 14.1-16.9 25.1-16.9 3.6 0 7.1 0.7 10.4 2.1zm-20.1 1.8c-3 1.3-5.8 3.2-8.2 5.5-2.3 2.4-4.2 5.2-5.5 8.2-1.2 3.1-1.9 6.4-1.9 9.7 0 10.2 6.2 19.4 15.6 23.3 9.4 3.9 20.3 1.7 27.5-5.5 7.2-7.2 9.4-18.1 5.5-27.5-3.9-9.4-13.1-15.6-23.3-15.6-3.3 0-6.6 0.7-9.7 1.9z"/>
			</g>
			<path id="Layer" fill-rule="evenodd" class="s4" d="m154.6 70.7v28.6h-28.6v-28.6zm-2.8 2.9h-23v23h23z"/>
		</g>
		<g id="Layer">
			<g id="Layer">
				<path id="Layer" class="s0" d="m196.7 111.3c-10.6 0-20.2-6.4-24.2-16.3-4.1-9.8-1.8-21.1 5.7-28.5 7.5-7.5 18.8-9.8 28.6-5.7 9.8 4.1 16.2 13.7 16.2 24.3 0 3.4-0.7 6.9-2 10-1.4 3.2-3.3 6.1-5.7 8.5-2.5 2.5-5.4 4.4-8.6 5.7-3.1 1.3-6.6 2-10 2z"/>
				<path id="Layer" fill-rule="evenodd" class="s1" d="m207.2 59.9c3.3 1.4 6.3 3.4 8.8 5.9 2.6 2.6 4.6 5.6 5.9 8.9 1.4 3.3 2.1 6.8 2.1 10.4 0 11-6.7 20.9-16.9 25.1-10.2 4.2-21.9 1.9-29.7-5.9-7.7-7.8-10-19.5-5.8-29.7 4.2-10.2 14.2-16.8 25.2-16.8 3.6 0 7.1 0.7 10.4 2.1zm-20.1 1.8c-3 1.3-5.8 3.2-8.2 5.5-2.3 2.4-4.2 5.2-5.5 8.2-1.2 3.1-1.9 6.4-1.9 9.7 0 10.2 6.2 19.4 15.6 23.3 9.4 3.9 20.3 1.7 27.5-5.5 7.2-7.2 9.4-18.1 5.5-27.5-3.9-9.4-13.1-15.6-23.3-15.6-3.3 0-6.6 0.7-9.7 1.9z"/>
			</g>
			<path id="Layer" fill-rule="evenodd" class="s5" d="m214.3 95.9h-35.2l1.6-2.8 16-27.6 16 27.6zm-4.8-2.8l-12.7-21.9-12.7 21.9z"/>
		</g>
	</g>
	<g id="Layer">
		<g id="Layer">
			<g id="Layer">
				<path id="Layer" class="s6" d="m83.8 53.5c-10.6 0-20.2-6.4-24.3-16.2-4.1-9.8-1.8-21.1 5.7-28.6 7.4-7.5 18.7-9.8 28.5-5.7 9.9 4 16.3 13.6 16.3 24.2 0 3.4-0.7 6.9-2 10-1.3 3.2-3.2 6.1-5.7 8.6-2.4 2.4-5.3 4.3-8.5 5.7-3.1 1.3-6.6 2-10 2z"/>
				<path id="Layer" fill-rule="evenodd" class="s7" d="m94.2 2.1c3.3 1.4 6.3 3.4 8.8 5.9 2.6 2.6 4.6 5.6 5.9 8.9 1.4 3.3 2.1 6.8 2.1 10.4 0 11.1-6.7 21-16.9 25.2-10.2 4.3-21.9 1.9-29.7-5.9-7.8-7.9-10.2-19.6-5.9-29.8 4.3-10.2 14.2-16.8 25.3-16.8 3.6 0 7.1 0.7 10.4 2.1zm-20.1 1.8c-3.1 1.3-5.9 3.1-8.2 5.5-2.4 2.3-4.2 5.1-5.5 8.2-1.3 3.1-1.9 6.4-1.9 9.7 0 10.2 6.2 19.4 15.6 23.3 9.4 3.9 20.3 1.7 27.5-5.5 7.2-7.2 9.4-18.1 5.5-27.5-3.9-9.4-13.1-15.6-23.3-15.6-3.3 0-6.6 0.6-9.7 1.9z"/>
			</g>
		</g>
		<g id="Layer">
			<g id="Layer">
				<path id="Layer" class="s8" d="m27.2 53.5c-10.6 0-20.2-6.4-24.2-16.3-4.1-9.8-1.8-21.1 5.7-28.5 7.5-7.5 18.8-9.8 28.6-5.7 9.8 4.1 16.2 13.7 16.2 24.3 0 3.4-0.7 6.9-2 10-1.4 3.2-3.3 6.1-5.7 8.5-2.5 2.5-5.4 4.4-8.6 5.7-3.1 1.3-6.6 2-10 2z"/>
				<path id="Layer" fill-rule="evenodd" class="s9" d="m37.8 2.1c3.3 1.3 6.3 3.4 8.8 5.9 2.5 2.5 4.6 5.5 5.9 8.8 1.4 3.4 2.1 6.9 2.1 10.5 0 11-6.7 21-16.9 25.2-10.2 4.2-21.9 1.9-29.7-5.9-7.8-7.8-10.1-19.5-5.9-29.7 4.2-10.2 14.2-16.9 25.2-16.9 3.6 0 7.1 0.7 10.5 2.1zm-20.2 1.8c-3 1.3-5.8 3.2-8.2 5.5-2.3 2.4-4.2 5.2-5.5 8.2-1.2 3.1-1.9 6.4-1.9 9.7 0 10.2 6.2 19.4 15.6 23.3 9.4 3.9 20.3 1.7 27.5-5.5 7.2-7.2 9.4-18.1 5.5-27.5-3.9-9.4-13.1-15.6-23.3-15.6-3.3 0-6.6 0.7-9.7 1.9z"/>
			</g>
		</g>
		<g id="Layer">
			<g id="Layer">
				<path id="Layer" class="s10" d="m140.3 54.2c-10.6 0-20.2-6.4-24.2-16.3-4.1-9.8-1.8-21.1 5.7-28.5 7.5-7.5 18.8-9.8 28.6-5.7 9.8 4.1 16.2 13.7 16.2 24.3 0 3.4-0.7 6.9-2 10-1.3 3.2-3.3 6.1-5.7 8.6-2.5 2.4-5.4 4.3-8.5 5.6-3.2 1.3-6.7 2-10.1 2z"/>
				<path id="Layer" fill-rule="evenodd" class="s11" d="m150.7 2.8c3.4 1.4 6.4 3.4 8.9 5.9 2.5 2.5 4.5 5.5 5.9 8.9 1.4 3.3 2.1 6.8 2.1 10.4 0 11-6.7 20.9-16.8 25.1-10.2 4.2-21.9 1.9-29.7-5.9-7.8-7.8-10.1-19.5-5.9-29.7 4.2-10.1 14.1-16.8 25.1-16.8 3.6 0 7.1 0.7 10.4 2.1zm-20.1 1.8c-3 1.3-5.8 3.1-8.1 5.5-2.4 2.3-4.3 5.1-5.5 8.2-1.3 3-2 6.3-2 9.6 0 10.2 6.1 19.4 15.5 23.4 9.5 3.9 20.3 1.7 27.6-5.5 7.2-7.2 9.4-18 5.5-27.5-3.9-9.4-13.1-15.6-23.3-15.6-3.3 0-6.6 0.7-9.7 1.9z"/>
			</g>
		</g>
		<g id="Layer">
			<g id="Layer">
				<path id="Layer" class="s12" d="m196.7 54.8c-10.6 0-20.2-6.4-24.3-16.3-4.1-9.8-1.8-21.1 5.7-28.6 7.6-7.5 18.9-9.8 28.7-5.7 9.9 4.1 16.2 13.8 16.2 24.4 0 3.4-0.7 6.9-2 10-1.4 3.2-3.3 6.1-5.7 8.5-2.5 2.5-5.4 4.4-8.6 5.7-3.1 1.3-6.6 2-10 2z"/>
				<path id="Layer" fill-rule="evenodd" class="s13" d="m196.8 3.3c10.2 0 19.5 6.2 23.4 15.6 3.9 9.5 1.7 20.4-5.5 27.6-7.2 7.2-18.1 9.4-27.6 5.5-9.4-3.9-15.6-13.2-15.6-23.4 0-3.3 0.7-6.6 1.9-9.7 1.3-3 3.2-5.8 5.5-8.2 2.4-2.3 5.2-4.2 8.2-5.5 3.1-1.2 6.4-1.9 9.7-1.9zm0-2c-11.1 0-21 6.6-25.3 16.8-4.3 10.2-1.9 21.9 5.9 29.8 7.8 7.8 19.5 10.2 29.7 5.9 10.2-4.2 16.9-14.1 16.9-25.2 0-3.6-0.7-7.1-2.1-10.4-1.3-3.3-3.3-6.3-5.9-8.9-2.5-2.5-5.5-4.5-8.8-5.9-3.3-1.4-6.8-2.1-10.4-2.1z"/>
			</g>
		</g>
	</g>
</svg>