<svg version="1.2" xmlns="http://www.w3.org/2000/svg" viewBox="0 0 807 599" width="807" height="599">
	<title>disconnected-svg</title>
	<defs>
		<filter x="-50%" y="-50%" width="200%" height="200%" id="f1" ><feDropShadow dx="0" dy="0" stdDeviation="2.0833333333333335" flood-color="#00deff" flood-opacity="1.5"/></filter>
		<filter x="-50%" y="-50%" width="200%" height="200%" id="f2" ><feDropShadow dx="0" dy="0" stdDeviation="2.0833333333333335" flood-color="#00deff" flood-opacity="1.5"/></filter>
		<filter x="-50%" y="-50%" width="200%" height="200%" id="f3" ><feDropShadow dx="0" dy="0" stdDeviation="2.0833333333333335" flood-color="#00deff" flood-opacity="1.5"/></filter>
	</defs>
	<style>
		tspan { white-space:pre } 
		.s0 { filter: url(#f1);fill: #00deff } 
		.s1 { filter: url(#f2);fill: #00deff } 
		.s2 { filter: url(#f3);fill: #00deff } 
		.s3 { fill: #f2f2f2 } 
		.t4 { font-size: 24px;fill: #ffffff;font-weight: 400;font-family: "BebasNeue-Regular", "Bebas Neue" } 
	</style>
	<g id="Layer">
		<path id="Layer" class="s0" d="m806.3 508.7v0.1c-0.2 2.5-3.6 35.7-20.8 59.5-0.5 0.7-1.1 1.4-1.6 2.1q0 0 0 0-0.1 0-0.1 0 0 0 0 0.1 0 0 0 0c-0.5 0.7-1 1.3-1.6 2-0.6 0.6-1.1 1.3-1.7 1.9l-0.2 0.2c-0.6 0.6-1.1 1.2-1.7 1.8l-0.1 0.1c-0.6 0.6-1.2 1.1-1.8 1.7l-0.3 0.3c-0.6 0.6-1.2 1.1-1.8 1.6l-0.1 0.1c-0.6 0.5-1.3 1-1.9 1.5-0.2 0.1-0.3 0.2-0.5 0.3-0.7 0.5-1.3 0.9-2 1.4-31.7 21.5-56.7 14-56.7 14h-0.1q0 0 0 0-0.1-0.1-0.1-0.1 0 0 0 0-0.1 0-0.1 0h-0.1c-0.1 0-0.2-0.1-0.4-0.1-0.1-0.1-0.3-0.1-0.5-0.2h-0.1c-0.2-0.1-0.6-0.1-0.7-0.2-0.1-0.1-0.1-0.1-0.2-0.1q-0.1 0-0.2-0.1-0.1 0-0.2-0.1-0.1 0-0.2 0-0.1-0.1-0.2-0.1h-0.1l-0.9-0.3c-0.1-0.1-0.1-0.1-0.2-0.1-0.4-0.1-0.7-0.3-1.1-0.4-0.1 0-0.2-0.1-0.3-0.1-0.4-0.2-0.8-0.3-1.2-0.5-0.1 0-0.1-0.1-0.2-0.1-0.4-0.2-0.8-0.3-1.2-0.5q0 0 0 0-0.1-0.1-0.1-0.1 0 0 0 0-0.1 0-0.1 0c-0.5-0.2-0.9-0.4-1.4-0.6-0.1 0-0.2-0.1-0.3-0.1q-0.2-0.1-0.4-0.2-0.1-0.1-0.3-0.2-0.2-0.1-0.4-0.1-0.2-0.1-0.4-0.2c-0.1 0-0.2-0.1-0.3-0.1-0.5-0.2-1-0.5-1.5-0.7q0 0 0 0-0.1-0.1-0.1-0.1 0 0 0 0-0.1 0-0.1 0c-0.6-0.3-1.1-0.5-1.7-0.8-0.1-0.1-0.3-0.1-0.4-0.2-0.5-0.3-1.1-0.6-1.7-0.9-0.1-0.1-0.2-0.1-0.3-0.2-0.5-0.3-1.1-0.6-1.7-0.9-0.1 0-0.1-0.1-0.2-0.1-0.6-0.4-1.3-0.7-1.9-1.1q-0.1 0-0.1 0-0.1 0-0.1-0.1-0.1 0-0.1 0-0.1-0.1-0.1-0.1-0.2-0.1-0.5-0.3-0.2-0.1-0.5-0.2-0.2-0.2-0.4-0.3-0.3-0.1-0.5-0.3-0.1 0-0.1 0-0.1 0-0.1-0.1-0.1 0-0.1 0-0.1-0.1-0.1-0.1c-0.7-0.4-1.3-0.8-2-1.2q0 0 0 0 0-0.1 0-0.1 0 0-0.1 0 0 0 0 0-4.6-2.9-8.9-6.3-4.3-3.3-8.2-7-4-3.8-7.6-7.8-3.6-4.1-6.8-8.5c-0.5-0.7-1-1.5-1.5-2.2-0.1-0.2-0.3-0.4-0.4-0.6-0.4-0.7-0.9-1.5-1.4-2.2 0-0.1-0.1-0.1-0.1-0.2-0.5-0.8-1.1-1.6-1.6-2.5-0.1-0.2-0.2-0.3-0.3-0.5-0.5-0.8-1-1.6-1.5-2.5l-0.1-0.1c-0.6-0.9-1.1-1.9-1.7-2.9-0.1-0.1-0.1-0.2-0.2-0.3-0.6-1-1.1-2-1.7-3l-1.8-3.3v-0.1c-21.8-41.6-43.9-108.3-44.3-108.8q-0.6-0.8-1.3-1.5-0.6-0.7-1.3-1.4-0.8-0.6-1.5-1.2-0.8-0.7-1.6-1.2-0.7-0.5-1.5-0.9-0.7-0.4-1.5-0.7-0.8-0.4-1.6-0.6-0.9-0.3-1.7-0.4h-1.9c-7.1 6.9-15.4 12.4-24.6 16.1-9.1 3.8-18.9 5.7-28.8 5.7-9.9 0-19.7-1.9-28.9-5.6-9.2-3.7-17.5-9.2-24.6-16.1h-35.9c0 2.8-2.7 2.2-5.5 2.2h-67.9c-2.8 0-4.6 0.6-4.6-2.2h-36c-7.1 6.9-15.4 12.4-24.6 16.1-9.2 3.7-19 5.6-28.9 5.6-9.9 0-19.7-1.9-28.8-5.7-9.2-3.7-17.5-9.2-24.6-16.1h-1.9q-0.8 0.1-1.7 0.4-0.8 0.2-1.6 0.6-0.8 0.3-1.5 0.7-0.8 0.4-1.5 0.9-0.8 0.5-1.6 1.2-0.7 0.6-1.5 1.2-0.7 0.7-1.3 1.4-0.7 0.7-1.3 1.5c0 0-22.4 67.2-44.3 108.8v0.1l-1.8 3.3c-0.6 1-1.2 2-1.7 3-0.1 0.1-0.1 0.2-0.2 0.3-0.6 1-1.1 1.9-1.7 2.9l-0.1 0.1c-0.5 0.8-1 1.7-1.5 2.5-0.1 0.2-0.2 0.3-0.3 0.5-0.5 0.8-1.1 1.7-1.6 2.5 0 0.1-0.1 0.1-0.1 0.2q-0.2 0.3-0.3 0.6-0.2 0.3-0.4 0.5-0.1 0.3-0.3 0.6-0.2 0.2-0.4 0.5c-0.1 0.2-0.3 0.4-0.4 0.6-0.5 0.8-1 1.5-1.5 2.2q-3.2 4.4-6.8 8.5-3.6 4-7.6 7.7-4 3.8-8.2 7.1-4.3 3.4-8.9 6.3 0 0 0 0 0 0.1 0 0.1 0 0-0.1 0 0 0 0 0c-0.7 0.4-1.3 0.8-2 1.2q-0.1 0-0.1 0-0.1 0-0.1 0.1-0.1 0-0.1 0-0.1 0.1-0.1 0.1c-0.6 0.4-1.3 0.7-1.9 1.1q-0.1 0-0.1 0-0.1 0-0.1 0.1-0.1 0-0.1 0-0.1 0.1-0.1 0.1c-0.7 0.4-1.3 0.8-1.9 1.1-0.1 0-0.1 0.1-0.2 0.1-0.6 0.3-1.1 0.6-1.7 0.9-0.1 0.1-0.2 0.1-0.3 0.2-0.6 0.3-1.1 0.6-1.7 0.9-0.1 0.1-0.3 0.1-0.4 0.2-0.6 0.3-1.2 0.5-1.7 0.8q0 0 0 0-0.1 0.1-0.1 0.1 0 0 0 0-0.1 0-0.1 0-0.2 0.1-0.4 0.2-0.1 0.1-0.3 0.2-0.2 0.1-0.4 0.1-0.2 0.1-0.4 0.2c-0.1 0-0.2 0.1-0.3 0.1q-0.2 0.1-0.4 0.2-0.1 0.1-0.3 0.2-0.2 0.1-0.4 0.1-0.2 0.1-0.4 0.2c-0.1 0-0.2 0.1-0.3 0.1-0.5 0.2-1 0.4-1.4 0.6q0 0 0 0-0.1 0.1-0.1 0.1 0 0 0 0-0.1 0-0.1 0c-0.4 0.2-0.8 0.3-1.2 0.5-0.1 0-0.1 0.1-0.2 0.1q-0.1 0.1-0.3 0.1-0.1 0.1-0.3 0.2-0.1 0-0.3 0.1-0.1 0.1-0.3 0.1c-0.1 0-0.2 0.1-0.3 0.1q-0.1 0.1-0.3 0.1-0.1 0.1-0.2 0.1-0.2 0.1-0.3 0.1-0.2 0.1-0.3 0.1c-0.1 0.1-0.1 0.1-0.2 0.1l-0.9 0.3h-0.1c-0.3 0.1-0.5 0.2-0.8 0.3-0.1 0.1-0.1 0.1-0.2 0.1q-0.1 0-0.2 0-0.1 0.1-0.2 0.1 0 0-0.1 0-0.1 0.1-0.2 0.1h-0.1c-0.2 0.1-0.3 0.2-0.5 0.2-0.1 0-0.3 0.1-0.4 0.1h-0.1c-0.1 0.1-0.1 0.1-0.2 0.1h-0.1c0 0-25 7.5-56.7-14q-0.3-0.2-0.5-0.3-0.3-0.2-0.5-0.4-0.3-0.1-0.5-0.3-0.3-0.2-0.5-0.4c-0.2-0.1-0.3-0.2-0.5-0.3-0.6-0.5-1.3-1-1.9-1.5l-0.1-0.1c-0.6-0.6-1.2-1.1-1.8-1.6l-0.3-0.3c-0.6-0.5-1.2-1.1-1.8-1.7l-0.1-0.1c-0.6-0.6-1.1-1.2-1.7-1.8l-0.2-0.2c-0.6-0.6-1.1-1.2-1.7-1.9-0.5-0.6-1.1-1.3-1.6-2q0 0 0 0-0.1 0-0.1 0 0 0 0-0.1 0 0 0 0c-0.5-0.7-1.1-1.4-1.6-2.1-17.2-23.8-20.6-57-20.8-59.5v-0.2-2.4c0.1-12.4 0.8-67.1 4.6-87.6 2.9-15.5 17.7-102.5 32-144.6 9.3-27.7 13-53 17-64.9 12-35.7 33-65.7 33-65.7 0 0 9.5-13 10.1-16.3 0.6-3.3 4.7-8.6 4.7-8.6 0 0 2.3-0.7 7.4-1.7v-6.9q0-0.3 0.1-0.6 0-0.3 0.2-0.5 0.1-0.3 0.3-0.5 0.2-0.2 0.5-0.3c4.5-2.9 23.3-13.6 51.5-13.6 26.9 0 41.1 6 45.1 8q0.3 0.1 0.5 0.4 0.2 0.2 0.4 0.4 0.1 0.3 0.2 0.6 0.1 0.3 0.1 0.6v11c7.5 1.2 9.2 1.9 9.6 2.4q0.6 0.7 1.3 1.4 0.7 0.7 1.4 1.3 0.8 0.6 1.6 1.1 0.8 0.5 1.6 1c3.5 1.9 11.7 1.7 11.7 1.7h33.4q0.1 0 0.2 0 0.2 0 0.3 0 0.1 0.1 0.2 0.1 0.1 0.1 0.2 0.2 0.1 0.2 0.2 0.5 0.1 0.2 0.2 0.5 0 0.2 0.1 0.5 0.1 0.2 0.1 0.5h1.6q0.4-0.9 0.9-1.6 0.6-0.7 1.4-1.3 0.7-0.5 1.6-0.8 0.9-0.3 1.8-0.4h251.7q0.9 0.1 1.8 0.4 0.9 0.3 1.6 0.8 0.8 0.6 1.4 1.3 0.5 0.7 0.9 1.6h1.6q0-0.3 0.1-0.5 0-0.3 0.1-0.5 0.1-0.3 0.2-0.5 0.1-0.3 0.2-0.5 0.1-0.1 0.2-0.2 0.1 0 0.2-0.1 0.1 0 0.3 0 0.1 0 0.2 0h33.4c0 0 8.2 0.1 11.7-1.7q0.8-0.5 1.6-1 0.8-0.5 1.6-1.1 0.7-0.7 1.4-1.3 0.7-0.7 1.3-1.4c0 0 2.2-1.2 9.6-2.4v-11q0-0.3 0.1-0.6 0.1-0.3 0.2-0.6 0.2-0.2 0.4-0.4 0.2-0.3 0.5-0.4c4-2.1 18.2-8 45.1-8 28.1 0 47 10.7 51.5 13.6q0.3 0.1 0.5 0.3 0.2 0.2 0.3 0.5 0.2 0.2 0.2 0.5 0.1 0.3 0.1 0.6v6.9q0.9 0.1 1.9 0.3 0.9 0.2 1.8 0.4 1 0.2 1.9 0.5 0.9 0.2 1.8 0.5c0 0 4.1 5.4 4.7 8.6 0.6 3.2 10.1 16.3 10.1 16.3 0 0 21 30 33 65.7 3.9 11.9 7.6 37.2 17 64.9 14.3 42.1 29.1 129.1 32 144.6 3.8 20.5 4.5 75.2 4.6 87.6v2.4c0 0.1 0.4 0.1 0.4 0.1z"/>
		<path id="Layer" class="s1" d="m603.4 89.6c-3.1 0.3-5 0.4-5 0.4v-0.1q0-0.2 0-0.5 0-0.2 0-0.4 0-0.2 0.1-0.5 0-0.2 0-0.4v-0.5c0-0.5 0.1-1 0.1-1.6v-2.8c1-12.8 3.1-39.7 4.3-45.2 1.6-7.3 7.8-21.2 16.9-27.9 9.1-6.7 11.8-10.1 22.7-10.1 10.9 0 25.5 6.4 34.6 21.4 8 13 17.1 55.8 19.4 66.8v0.1c0 0.1 0.1 0.3 0.1 0.4v0.1q0 0.1 0.1 0.2 0 0.1 0 0.2 0.1 0.1 0.1 0.2 0 0.1 0 0.2v0.3q0 0 0 0.1 0.1 0 0.1 0 0 0.1 0 0.1 0 0.1 0 0.1v0.3q0 0 0 0.1 0.1 0 0.1 0 0 0.1 0 0.1 0 0.1 0 0.1c0 0-32.7-3.2-50.6-3.2h-1.7c-1.2 0.1-2.4 0.1-3.6 0.1-1.2 0-2.5 0.1-3.8 0.1l-8 0.3c-1.3 0.1-2.7 0.1-4 0.2-5.4 0.3-10.6 0.6-15 0.9-0.5 0-1.1 0.1-1.6 0.1-2.1 0.1-4 0.2-5.3 0.3z"/>
		<path id="Layer" class="s2" d="m159.4 87.6c-17.9 0-50.6 3.2-50.6 3.2q0 0 0-0.1 0.1 0 0.1 0 0-0.1 0-0.1 0-0.1 0-0.1v-0.3q0 0 0-0.1 0.1 0 0.1 0 0-0.1 0-0.1 0-0.1 0-0.1v-0.3c0.1-0.2 0.1-0.5 0.2-0.8v-0.1c0-0.1 0.1-0.2 0.1-0.4v-0.1c2.3-11 11.4-53.8 19.4-66.8 9.2-15 23.8-21.4 34.6-21.4 10.8 0 13.8 3.6 23 10.2 9.2 6.6 15.3 20.6 16.9 27.9 1.2 5.5 3.3 32.4 4.3 45.2v2.7c0 0.6 0.1 1.1 0.1 1.6v0.5c0 1 0.1 1.6 0.1 1.9 0 0-30.4-2.4-48.3-2.4z"/>
	</g>
	<g id="Layer">
		<path id="Layer" fill-rule="evenodd" class="s3" d="m171.4 251.7q1.9-0.3 3.9-0.5 2-0.2 3.9-0.4 2-0.1 4-0.2 1.9 0 3.9 0c10.1 0 17 2.1 22 6.2 5.2 4.2 8.4 10.6 8.4 19.8 0 9.6-3.3 16.8-8.4 21.4-5.4 4.9-13.9 7.4-24.4 7.4q-1.7 0-3.3 0-1.7-0.1-3.4-0.1-1.6-0.1-3.3-0.3-1.6-0.1-3.3-0.3zm9.9 45.7q0.7 0.1 1.3 0.1 0.7 0.1 1.4 0.1 0.7 0 1.3 0 0.7 0 1.4 0c12.8 0.1 20.4-7 20.4-20.6 0.1-11.9-6.8-18.7-19.1-18.7q-0.8 0-1.7 0-0.8 0-1.7 0.1-0.8 0.1-1.6 0.2-0.9 0.1-1.7 0.3z"/>
		<path id="Layer" class="s3" d="m236.4 255.1q0 1.1-0.4 2.1-0.4 1-1.2 1.8-0.8 0.7-1.9 1.1-1 0.4-2.1 0.3-1.1 0.1-2.1-0.3-1-0.4-1.8-1.2-0.7-0.7-1.1-1.7-0.4-1-0.4-2.1 0-1.1 0.4-2.1 0.4-1 1.2-1.8 0.8-0.8 1.8-1.2 1-0.3 2.1-0.3 1.1 0 2.1 0.4 1 0.4 1.8 1.1 0.8 0.8 1.2 1.8 0.4 1 0.4 2.1zm-10.5 49.8v-39h9.9v39z"/>
		<path id="Layer" class="s3" d="m245.9 295.9q1.1 0.7 2.4 1.2 1.2 0.5 2.4 0.8 1.3 0.4 2.6 0.6 1.3 0.2 2.6 0.2c4.3 0 6.2-1.8 6.2-4.3 0-2.5-1.6-4-6.4-5.7-7.6-2.6-10.8-6.8-10.7-11.4 0-6.9 5.7-12.2 14.7-12.2q1.3 0 2.7 0.1 1.3 0.2 2.6 0.4 1.3 0.3 2.5 0.8 1.3 0.4 2.5 1l-1.9 7q-0.9-0.5-1.9-0.9-1-0.4-2.1-0.7-1-0.3-2.1-0.4-1-0.2-2.1-0.2c-3.5 0-5.4 1.7-5.4 4.1 0 2.4 1.8 3.7 6.8 5.4 7 2.6 10.3 6.2 10.4 11.9 0 7-5.5 12.2-15.8 12.2q-1.5 0-3.1-0.1-1.5-0.2-3-0.5-1.5-0.4-2.9-0.9-1.4-0.5-2.8-1.2z"/>
		<path id="Layer" class="s3" d="m308.4 303.7q-1.3 0.5-2.7 0.9-1.3 0.4-2.7 0.7-1.4 0.2-2.8 0.3-1.4 0.1-2.8 0.1c-12.2 0-20.1-7.8-20.1-19.8 0-11.7 8-20.8 21.7-20.8q1.2 0 2.4 0.1 1.2 0.1 2.4 0.3 1.2 0.3 2.4 0.6 1.2 0.3 2.3 0.8l-1.8 7.4q-0.9-0.4-1.8-0.7-0.9-0.3-1.8-0.5-1-0.1-1.9-0.2-0.9-0.1-1.9-0.1c-7.5 0-12 5.5-11.9 12.6 0 8 5.2 12.6 11.9 12.6q1 0 2-0.1 1-0.1 2-0.3 1-0.1 1.9-0.4 1-0.3 1.9-0.7z"/>
		<path id="Layer" fill-rule="evenodd" class="s3" d="m352 285.1c0 14.3-10.1 20.7-20 20.7-11 0-19.5-7.6-19.5-20.1 0-12.8 8.4-20.6 20.2-20.6 11.5 0 19.3 8.2 19.3 20zm-29.4 0.4c0 7.5 3.7 13.2 9.7 13.2 5.6 0 9.5-5.5 9.5-13.4 0-6.1-2.7-13-9.4-13-7 0-9.8 6.7-9.8 13.2z"/>
		<path id="Layer" class="s3" d="m360.1 277.6c0-4.5-0.1-8.2-0.3-11.6h8.6l0.5 5.8h0.2q1-1.6 2.3-2.9 1.4-1.2 3-2.1 1.6-0.9 3.4-1.3 1.8-0.4 3.7-0.4c6.8 0 13.8 4.4 13.8 16.7v23.1h-9.8v-22c0-5.6-2.1-9.8-7.4-9.8q-1.3 0-2.5 0.5-1.2 0.4-2.3 1.2-1 0.8-1.8 1.8-0.7 1.1-1.1 2.3-0.1 0.4-0.2 0.8-0.1 0.4-0.1 0.8-0.1 0.4-0.1 0.8 0 0.4 0 0.8v22.9h-9.9z"/>
		<path id="Layer" class="s3" d="m405.8 277.6c0-4.5-0.1-8.2-0.3-11.6h8.6l0.5 5.8h0.2q1-1.6 2.3-2.9 1.4-1.2 3-2.1 1.6-0.9 3.4-1.3 1.8-0.4 3.7-0.4c6.8 0 13.8 4.4 13.8 16.7v23.1h-9.8v-22c0-5.6-2.1-9.8-7.4-9.8q-1.3 0-2.5 0.5-1.2 0.4-2.3 1.2-1 0.8-1.8 1.8-0.7 1.1-1.1 2.3-0.1 0.4-0.2 0.8-0.1 0.4-0.1 0.8-0.1 0.4-0.1 0.8 0 0.4 0 0.8v22.9h-9.9z"/>
		<path id="Layer" fill-rule="evenodd" class="s3" d="m458.5 288.2c0.2 7 5.8 10.1 12 10.1q1.4 0 2.8 0 1.3-0.1 2.7-0.4 1.4-0.2 2.7-0.5 1.3-0.4 2.6-0.9l1.4 6.8q-1.6 0.6-3.3 1.1-1.7 0.5-3.4 0.8-1.7 0.3-3.4 0.4-1.8 0.1-3.5 0.1c-12.6 0-20.1-7.8-20.1-19.7 0-10.8 6.6-21 19-21 12.6 0 16.8 10.4 16.8 19q0 0.5 0 1.1 0 0.5-0.1 1 0 0.5-0.1 1.1 0 0.5-0.1 1zm17.2-6.9c0.1-3.6-1.5-9.5-8.1-9.5-6.1 0-8.6 5.5-9 9.5z"/>
		<path id="Layer" class="s3" d="m521.5 303.7q-1.3 0.5-2.7 0.9-1.3 0.4-2.7 0.7-1.4 0.2-2.8 0.3-1.4 0.1-2.8 0.1c-12.2 0-20.1-7.8-20.1-19.8 0-11.7 8-20.8 21.7-20.8q1.2 0 2.4 0.1 1.2 0.1 2.4 0.3 1.2 0.3 2.4 0.6 1.2 0.3 2.3 0.8l-1.8 7.4q-0.9-0.4-1.8-0.7-0.9-0.3-1.8-0.5-1-0.1-1.9-0.2-0.9-0.1-1.9-0.1c-7.5 0-12 5.5-11.9 12.6 0 8 5.2 12.6 11.9 12.6q1 0 2-0.1 1-0.1 2-0.3 1-0.1 1.9-0.4 1-0.3 1.9-0.7z"/>
		<path id="Layer" class="s3" d="m541.3 254.9v11.1h9.4v7.4h-9.4v17.2c0 4.7 1.3 7.2 5 7.2q0.5 0 1 0 0.4 0 0.9-0.1 0.5-0.1 1-0.2 0.4-0.1 0.9-0.2l0.2 7.5q-0.9 0.3-1.7 0.5-0.9 0.2-1.8 0.3-0.9 0.1-1.8 0.2-0.9 0-1.8 0-1.2 0.1-2.3-0.1-1.2-0.2-2.3-0.6-1.1-0.4-2.1-1.1-1-0.6-1.8-1.4c-2.1-2.2-3-5.8-3-10.9v-18.3h-5.6v-7.4h5.6v-8.8z"/>
		<path id="Layer" fill-rule="evenodd" class="s3" d="m564.5 288.2c0.2 7 5.8 10.1 12 10.1q1.4 0 2.8 0 1.3-0.1 2.7-0.4 1.4-0.2 2.7-0.5 1.3-0.4 2.6-0.9l1.4 6.8q-1.6 0.6-3.3 1.1-1.7 0.5-3.4 0.8-1.7 0.3-3.4 0.4-1.8 0.1-3.5 0.1c-12.6 0-20.1-7.8-20.1-19.7 0-10.8 6.6-21 19-21 12.6 0 16.8 10.4 16.8 19q0 0.5 0 1.1 0 0.5-0.1 1 0 0.5-0.1 1.1 0 0.5-0.1 1zm17.2-6.9c0.1-3.6-1.5-9.5-8.1-9.5-6.1 0-8.6 5.5-9 9.5z"/>
		<path id="Layer" fill-rule="evenodd" class="s3" d="m634.8 248.1v45.9c0 4 0.2 8.3 0.3 11h-8.8l-0.4-6.2h-0.2c-2.3 4.3-7 7-12.7 7-9.3 0-16.6-7.9-16.6-19.9-0.1-13 8.1-20.8 17.4-20.8 5.4 0 9.2 2.2 11 5.1h0.2v-22.1zm-9.9 34.1q0-0.3 0-0.7 0-0.3-0.1-0.6 0-0.3 0-0.7-0.1-0.3-0.1-0.6-0.3-1.5-1.1-2.8-0.7-1.3-1.9-2.2-1.2-1-2.6-1.5-1.4-0.5-2.9-0.5c-6.3 0-9.8 5.6-9.8 12.9 0 7.1 3.5 12.3 9.8 12.3q1.5 0 2.9-0.5 1.4-0.5 2.6-1.5 1.2-0.9 1.9-2.2 0.8-1.3 1.1-2.8 0.1-0.4 0.1-0.7 0.1-0.4 0.1-0.7 0.1-0.4 0.1-0.8 0-0.3 0-0.7z"/>
		<text id="ETSY-AEofficialNetwork" style="transform: matrix(1.43,.002,0,1.234,258,392)" >
			<tspan x="0" y="0" class="t4">E</tspan><tspan  y="0" class="t4">T</tspan><tspan  y="0" class="t4">S</tspan><tspan  y="0" class="t4">Y</tspan><tspan  y="0" class="t4">-</tspan><tspan  y="0" class="t4">AEofficialNetwork</tspan><tspan  y="0" class="t4">
</tspan>
		</text>
	</g>
</svg>